<?xml version="1.0" encoding="UTF-8" standalone="no"?>
<!-- Created with Inkscape (http://www.inkscape.org/) -->
<svg xmlns:rdf="http://www.w3.org/1999/02/22-rdf-syntax-ns#" xmlns="http://www.w3.org/2000/svg" xmlns:cc="http://web.resource.org/cc/" xmlns:xlink="http://www.w3.org/1999/xlink" xmlns:dc="http://purl.org/dc/elements/1.1/" xmlns:svg="http://www.w3.org/2000/svg" xmlns:inkscape="http://www.inkscape.org/namespaces/inkscape" xmlns:sodipodi="http://sodipodi.sourceforge.net/DTD/sodipodi-0.dtd" xmlns:ns1="http://sozi.baierouge.fr" id="svg2" viewBox="0 0 320 240" version="1.0" inkscape:version="0.91 r13725">
  <defs id="defs4">
    <linearGradient id="linearGradient8880">
      <stop id="stop8882" style="stop-color:black;stop-opacity:.14118" offset="0"/>
      <stop id="stop29325" style="stop-color:black;stop-opacity:.029740" offset=".69271"/>
      <stop id="stop8884" style="stop-color:black;stop-opacity:0" offset="1"/>
    </linearGradient>
    <linearGradient id="linearGradient26091">
      <stop id="stop26093" style="stop-color:#290b06" offset="0"/>
      <stop id="stop26095" style="stop-color:#751f03" offset="1"/>
    </linearGradient>
    <linearGradient id="linearGradient22479">
      <stop id="stop22481" style="stop-color:#090302" offset="0"/>
      <stop id="stop22483" style="stop-color:#501705" offset="1"/>
    </linearGradient>
    <linearGradient id="linearGradient10859">
      <stop id="stop10861" style="stop-color:#fef7d6" offset="0"/>
      <stop id="stop10863" style="stop-color:#5f593e" offset="1"/>
    </linearGradient>
    <linearGradient id="linearGradient5496">
      <stop id="stop5498" style="stop-color:#fef7d6" offset="0"/>
      <stop id="stop5500" style="stop-color:#cec391" offset="1"/>
    </linearGradient>
    <linearGradient id="linearGradient2829" y2="110.28" gradientUnits="userSpaceOnUse" x2="84.213" y1="164.37" x1="84.531">
      <stop id="stop2825" style="stop-color:#524d36" offset="0"/>
      <stop id="stop3716" style="stop-color:#8e876a" offset=".36458"/>
      <stop id="stop2827" style="stop-color:#d0c69d" offset="1"/>
    </linearGradient>
    <linearGradient id="linearGradient4609" y2="121.51" gradientUnits="userSpaceOnUse" x2="236.85" y1="173.01" x1="237.4">
      <stop id="stop4605" style="stop-color:#514f3e" offset="0"/>
      <stop id="stop4607" style="stop-color:#a69e73" offset="1"/>
    </linearGradient>
    <linearGradient id="linearGradient9071" y2="104.47" xlink:href="#linearGradient5496" gradientUnits="userSpaceOnUse" x2="17.219" y1="106.72" x1="129.47"/>
    <linearGradient id="linearGradient10849" y2="44.147" gradientUnits="userSpaceOnUse" x2="139.08" y1="107.39" x1="128.9">
      <stop id="stop31496" style="stop-color:#fef7d6" offset="0"/>
      <stop id="stop31498" style="stop-color:#f3eccc" offset="1"/>
    </linearGradient>
    <linearGradient id="linearGradient10857" y2="160.92" xlink:href="#linearGradient10859" gradientUnits="userSpaceOnUse" x2="132.52" y1="108.07" x1="129.42"/>
    <linearGradient id="linearGradient11765" y2="184.37" xlink:href="#linearGradient10859" gradientUnits="userSpaceOnUse" x2="198.07" y1="131.16" x1="208.13"/>
    <linearGradient id="linearGradient12658" y2="98.621" xlink:href="#linearGradient5496" gradientUnits="userSpaceOnUse" x2="293.15" y1="130.79" x1="206.86"/>
    <linearGradient id="linearGradient13551" y2="70.059" xlink:href="#linearGradient5496" gradientUnits="userSpaceOnUse" x2="168.38" y1="129.1" x1="207.12"/>
    <linearGradient id="linearGradient14444" y2="41.136" xlink:href="#linearGradient5496" gradientUnits="userSpaceOnUse" x2="236.19" y1="127.64" x1="210.29"/>
    <linearGradient id="linearGradient15337" y2="31.903" xlink:href="#linearGradient5496" gradientUnits="userSpaceOnUse" x2="45.418" y1="103.28" x1="99.345"/>
    <radialGradient id="radialGradient22485" xlink:href="#linearGradient26091" gradientUnits="userSpaceOnUse" cy="77.656" cx="86.952" gradientTransform="matrix(1.2045 -.17857 .075345 .75331 -23.099 30.7)" r="8.125"/>
    <radialGradient id="radialGradient23378" xlink:href="#linearGradient26091" gradientUnits="userSpaceOnUse" cy="76.57" cx="86.4" gradientTransform="matrix(1.3929 .044928 -.050287 .66081 -30.029 19.239)" r="8.125"/>
    <radialGradient id="radialGradient24271" xlink:href="#linearGradient22479" gradientUnits="userSpaceOnUse" cy="65.752" cx="87.254" gradientTransform="matrix(1 0 0 .58242 0 29.119)" r="8.125"/>
    <radialGradient id="radialGradient25164" xlink:href="#linearGradient22479" gradientUnits="userSpaceOnUse" cy="63.771" cx="88.084" gradientTransform="matrix(1.6156 .097415 .26199 1.2042 -70.965 -19.485)" r="8.125"/>
    <radialGradient id="radialGradient25168" xlink:href="#linearGradient22479" gradientUnits="userSpaceOnUse" cy="65.406" cx="87.5" gradientTransform="matrix(1.6947 -.24918 .20318 1.0445 -74.074 20.701)" r="8.125"/>
    <radialGradient id="radialGradient25170" xlink:href="#linearGradient22479" gradientUnits="userSpaceOnUse" cy="63.969" cx="89.396" gradientTransform="matrix(2.0108 -.66224 0.431 .94908 -118.31 64.567)" r="8.125"/>
    <radialGradient id="radialGradient25172" xlink:href="#linearGradient22479" gradientUnits="userSpaceOnUse" cy="64.796" cx="88.499" gradientTransform="matrix(1.7726 -.071013 .20597 1.1185 -81.719 .66629)" r="8.125"/>
    <radialGradient id="radialGradient25174" xlink:href="#linearGradient22479" gradientUnits="userSpaceOnUse" cy="64.201" cx="87.726" gradientTransform="matrix(1.8183 .024339 .29776 1.6883 -90.981 -44.866)" r="8.125"/>
    <radialGradient id="radialGradient25176" xlink:href="#linearGradient22479" gradientUnits="userSpaceOnUse" cy="65.188" cx="88.408" gradientTransform="matrix(1.2081 .18806 .063445 .94832 -22.532 -11.359)" r="8.125"/>
    <radialGradient id="radialGradient25178" xlink:href="#linearGradient22479" gradientUnits="userSpaceOnUse" cy="65.626" cx="90.458" gradientTransform="matrix(1.3559 -.10185 .46491 .89407 -62.44 17.919)" r="8.125"/>
    <radialGradient id="radialGradient25180" xlink:href="#linearGradient22479" gradientUnits="userSpaceOnUse" cy="66.223" cx="88.129" gradientTransform="matrix(1.3446 .27459 .14486 1.0083 -39.97 -23.543)" r="8.125"/>
    <radialGradient id="radialGradient26073" xlink:href="#linearGradient22479" gradientUnits="userSpaceOnUse" cy="64.966" cx="86.569" gradientTransform="matrix(1.4073 -.11682 .17851 1.0126 -46.856 11.286)" r="8.125"/>
    <radialGradient id="radialGradient26075" xlink:href="#linearGradient22479" gradientUnits="userSpaceOnUse" cy="63.88" cx="86.818" gradientTransform="matrix(1.9004 .077418 .38611 1.2204 -102.84 -18.359)" r="8.125"/>
    <radialGradient id="radialGradient26077" xlink:href="#linearGradient22479" gradientUnits="userSpaceOnUse" cy="67.567" cx="87.016" gradientTransform="matrix(2.3081 -.17202 .60105 1.2398 -154.81 -1.421)" r="8.125"/>
    <radialGradient id="radialGradient26079" xlink:href="#linearGradient22479" gradientUnits="userSpaceOnUse" cy="67.985" cx="86.885" gradientTransform="matrix(1.4813 -.11997 .21132 1.0463 -56.552 7.1927)" r="8.125"/>
    <radialGradient id="radialGradient26083" xlink:href="#linearGradient22479" gradientUnits="userSpaceOnUse" cy="65.157" cx="86.971" gradientTransform="matrix(2.3014 -.0082819 .55026 1.2495 -148.91 -13.063)" r="8.125"/>
    <radialGradient id="radialGradient26085" xlink:href="#linearGradient22479" gradientUnits="userSpaceOnUse" cy="75.608" cx="87.138" gradientTransform="matrix(1.1523 .0083794 -.026876 .67494 -11.301 21.402)" r="8.125"/>
    <radialGradient id="radialGradient26087" xlink:href="#linearGradient22479" gradientUnits="userSpaceOnUse" cy="76.09" cx="87.406" gradientTransform="matrix(1.7013 .17307 -.41944 .94513 -29.386 -13.607)" r="8.125"/>
    <radialGradient id="radialGradient26089" xlink:href="#linearGradient22479" gradientUnits="userSpaceOnUse" cy="75.199" cx="87.746" gradientTransform="matrix(2.1461 .031065 -0.88 1.1787 -34.359 -18.361)" r="8.125"/>
    <linearGradient id="linearGradient32391" y2="119.43" gradientUnits="userSpaceOnUse" x2="192.04" y1="135.99" x1="169.2">
      <stop id="stop32395" style="stop-color:#393727" offset="0"/>
      <stop id="stop32397" style="stop-color:#968e64" offset="1"/>
    </linearGradient>
    <radialGradient id="radialGradient8886" xlink:href="#linearGradient8880" gradientUnits="userSpaceOnUse" cy="189.38" cx="196.25" gradientTransform="matrix(1 0 0 .85527 0 27.409)" r="47.501"/>
    <radialGradient id="radialGradient9779" xlink:href="#linearGradient8880" gradientUnits="userSpaceOnUse" cy="189.38" cx="196.25" gradientTransform="matrix(1 0 0 .85519 0 27.423)" r="47.477"/>
    <radialGradient id="radialGradient10672" xlink:href="#linearGradient8880" gradientUnits="userSpaceOnUse" cy="189.38" cx="196.25" gradientTransform="matrix(1 0 0 .85495 0 27.468)" r="47.399"/>
    <radialGradient id="radialGradient14230" xlink:href="#linearGradient8880" gradientUnits="userSpaceOnUse" cy="147.49" cx="90.5" gradientTransform="matrix(-.90509 -.067087 .029604 -.39939 168.17 236.69)" r="51.125"/>
    <radialGradient id="radialGradient15131" xlink:href="#linearGradient8880" gradientUnits="userSpaceOnUse" cy="162.99" cx="236.75" gradientTransform="matrix(-.57737 .26027 -.24620 -.54616 419.32 203.02)" r="53"/>
    <radialGradient id="radialGradient16024" xlink:href="#linearGradient8880" gradientUnits="userSpaceOnUse" cy="158.75" cx="169.91" gradientTransform="matrix(-.868 .52773 -.54829 -.90182 404.42 211.55)" r="37.306"/>
    <radialGradient id="radialGradient16917" xlink:href="#linearGradient8880" gradientUnits="userSpaceOnUse" cy="139.72" cx="141.89" gradientTransform="matrix(1.622 .21634 -.16595 1.2442 -65.066 -65.834)" r="23.112"/>
    <radialGradient id="radialGradient17810" xlink:href="#linearGradient8880" gradientUnits="userSpaceOnUse" cy="135.43" cx="68.554" gradientTransform="matrix(-1.037 -.35705 .44289 -1.2864 58.941 319.32)" r="34.065"/>
    <radialGradient id="radialGradient18703" xlink:href="#linearGradient8880" gradientUnits="userSpaceOnUse" cy="132.85" cx="246.88" gradientTransform="matrix(.83392 .80475 -1.0413 1.079 179.33 -209.83)" r="38.44"/>
    <radialGradient id="radialGradient30220" xlink:href="#linearGradient8880" gradientUnits="userSpaceOnUse" cy="82.5" cx="147.5" gradientTransform="matrix(1 0 0 .37719 0 51.382)" r="71.25"/>
  </defs>
  <g id="layer1" style="display:none">
    <rect id="rect36884" style="color:black;display:inline;fill:white" height="240" width="320" y="0" x="0"/>
  </g>
  <g id="layer4">
    <path id="path7090" style="fill-rule:evenodd;fill:url(#radialGradient14230)" d="m48.75 160l-13.75 33.12 96.25 7.5 5-36.24-87.5-4.38z"/>
    <path id="path7092" style="fill-rule:evenodd;fill:url(#radialGradient15131)" d="m270.63 157.81l28.12 24.38-83.75 43.75-21.25-36.25 76.88-31.88z"/>
    <path id="path7094" style="fill-rule:evenodd;fill:url(#radialGradient16024)" d="m197.34 192.67l-42.12 17.69-31.5-66.73 32.86-11.02 40.76 60.06z"/>
    <path id="path7096" style="color:black;fill:url(#radialGradient10672)" d="m243.13 189.38a46.875 40 0 1 1 -93.75 0 46.875 40 0 1 1 93.75 0z"/>
    <path id="path7983" style="color:black;fill:url(#radialGradient8886)" d="m243.13 189.38a46.875 40 0 1 1 -93.75 0 46.875 40 0 1 1 93.75 0z" transform="matrix(-.84689 .24628 .27975 .74558 388.22 -32.027)"/>
    <path id="path7985" style="fill-rule:evenodd;fill:url(#radialGradient16917)" d="m133.65 170.04l45.23 2.18-2.29-56.63-32.34-0.39-10.6 54.84z"/>
    <path id="path7987" style="color:black;fill:url(#radialGradient8886)" d="m243.13 189.38a46.875 40 0 1 1 -93.75 0 46.875 40 0 1 1 93.75 0z" transform="matrix(.87507 .11015 -.15912 .78027 -97.849 -6.8818)"/>
    <path id="path7989" style="color:black;fill:url(#radialGradient9779)" d="m243.13 189.38a46.875 40 0 1 1 -93.75 0 46.875 40 0 1 1 93.75 0z" transform="matrix(-.87333 0 0 .86719 308.58 2.3389)"/>
    <path id="path7991" style="fill-rule:evenodd;fill:url(#radialGradient17810)" d="m47.612 164.46l-45.849-2.2 26.037-49.12 41.094 1.47-21.282 49.85z"/>
    <path id="path7993" style="fill-rule:evenodd;fill:url(#radialGradient18703)" d="m272.72 160.66l40.85-17.82-47.92-49.125-27.97 10.225 35.04 56.72z"/>
    <path id="path29327" style="color:black;fill:url(#radialGradient30220)" d="m218.75 82.5a71.25 26.875 0 1 1 -142.5 0 71.25 26.875 0 1 1 142.5 0z" transform="matrix(1.5263 0 0 2.2209 -68.257 -74)"/>
  </g>
  <g id="layer3">
    <path id="path35054" style="fill-rule:evenodd;fill:#250808" d="m46.032 44.914c-0.623 1.604-20.528 45.915-22.125 49.604-3.196 7.382-3.214 8.472-0.631 15.502 0.489 1.34 18.299 46.88 19.303 49.84 2.311 6.84 4.289 7.88 10.956 8.18 2.38 0.14 71.395 3.93 73.535 4.05 7.45 0.41 10.72 1.34 11.91-7.42 0.27-1.97 5.59-42.02 6.07-45.61 0.62-4.59 1.1-10.44 0.99-13.28-0.06-1.52-1.41-56.921-1.4-60.066 0-4.577-1.58-6.707-9.88-6.8-2.28-0.026-73.511-1.75-77.499-1.866-7.285-0.966-8.506 1.483-11.229 7.866zm181.14-5.559c-4.23 1.487-63.1 19.738-64.63 20.095-9.85 2.294-8.01 4.723-8.13 14.175 0 1.829-0.3 50.955-0.33 53.675-0.05 4.01-0.02 5.76 2.04 8.99 0.98 1.55 32.58 50.94 33.39 52.17 4.35 6.62 7.62 6.87 12.37 4.88 1.69-0.71 61.92-27.28 63.58-27.99 8.18-3.52 9.39-4.71 13.64-15.15 3.45-8.48 12.68-31.88 16.61-40.73 3.94-10.158 5.2-13.442 0.91-17.564-9.72-9.343-48.82-46.972-51.44-49.191-7.48-7.677-7.57-6.73-18.01-3.36z"/>
    <path id="path10870" style="fill-rule:evenodd;fill:url(#linearGradient12658)" d="m293.06 94.562l-88.32 32.218 3.21 11.26 86.05-36.1s1-2.041 1.47-3.487c0.52-1.593-2.41-3.891-2.41-3.891z"/>
    <path id="path10872" style="fill-rule:evenodd;fill:url(#linearGradient13551)" d="m161.78 64.25s-2.51 0.65-3.28 1.344c-0.77 0.698-0.47 3.375-0.47 3.375l49.14 67.001 4.7-8.64-50.09-63.08z"/>
    <path id="path3972" style="fill-rule:evenodd;fill:url(#linearGradient14444)" d="m238.64 42.348l53.98 51.746c1.65 1.393 2.68 2.93-0.22 3.872l-79.14 29.124c-3.02 1.11-6.24 0.57-8.44-2.03l-44.78-58.235c-0.74-0.971-0.12-1.959 1.43-2.458l73.06-22.765c1.88-0.626 3.66 0.313 4.11 0.746z"/>
    <path id="path7568" style="fill-rule:evenodd;fill:url(#linearGradient11765)" d="m204.72 127.97l-8.95 61.04s0.59 1.11 1.11 1.24c0.98 0.25 1.56-0.16 1.56-0.16l15.19-59.17-8.91-2.95z"/>
    <path id="path3974" style="fill-rule:evenodd;fill:url(#linearGradient4609)" d="m295.35 98.911l-23.56 57.649c-0.45 1.12-1.42 1.88-2.32 2.36l-71.07 31.2 9.48-53.05c0.35-1.67 0.88-3.81 4.26-5.51l83.21-32.649z"/>
    <path id="path3976" style="fill-rule:evenodd;fill:url(#linearGradient32391)" d="m158.01 67.886l44.77 59.124c1.27 1.89 2.26 4.41 1.48 9.42l-8.05 53.3-38.89-58.34 0.69-63.504z"/>
    <path id="path8176" style="fill-rule:evenodd;fill:url(#linearGradient9071)" d="m25.515 99.706c-0.332 0.774-0.823 1.954-0.697 3.474 0.127 1.51 1.976 5.25 1.976 5.25l102.68 5.16-0.75-12.75-103.2-1.134z"/>
    <path id="path8178" style="fill-rule:evenodd;fill:url(#linearGradient10849)" d="m137.44 42.969c-0.83 0-2.47 0.043-2.47 0.043l-10.31 67.518 8.56 2.59 7.4-67.151s0.16-2.002-0.65-2.657c-0.53-0.424-1.71-0.343-2.53-0.343z"/>
    <path id="path5796" style="fill-rule:evenodd;fill:url(#linearGradient10857)" d="m133.41 102.31l-9.03 2.5 5.91 63.25s1.99 0.14 2.87 0.16c1.24 0.03 1.08-0.64 1.08-0.64l-0.83-65.27z"/>
    <path id="path3978" style="fill-rule:evenodd;fill:url(#linearGradient15337)" d="m51.074 42.588l-25.323 56.478c-0.463 1.014-1.392 2.724 0.426 2.814l98.853 3.52c2.6-0.14 3.61-1.21 4.13-3.68l8.51-56.924c0.15-1.076-0.44-1.738-1.83-1.787l-79.886-2.735c-2.499-0.192-3.899 0.574-4.88 2.314z"/>
    <path id="path3980" style="fill-rule:evenodd;fill:#3a3721" d="m140.53 44.139l-8.32 61.131c-0.18 1.81-0.2 3.17-0.1 5.3l2.11 57.31 8.33-56.06-2.02-67.681z"/>
    <path id="path3982" style="fill-rule:evenodd;fill:url(#linearGradient2829)" d="m26.862 108.67l20.105 52.41c0.474 1.18 1.845 2.65 3.446 2.74 21.12 1.18 81.527 4.32 81.527 4.32l-3.44-52.95c-0.22-3.77-2.19-5.24-4.71-5.52l-95.125-4.2c-2.587-0.14-2.263 1.82-1.803 3.2z"/>
    <path id="path3984" style="fill:url(#radialGradient22485)" d="m95 69.732a8.125 4.7321 0 1 1 -16.25 0 8.125 4.7321 0 1 1 16.25 0z" transform="matrix(.95604 -.072271 0 .95283 3.8104 9.7731)"/>
    <path id="path3986" style="fill:url(#radialGradient26085)" d="m95 69.732a8.125 4.7321 0 1 1 -16.25 0 8.125 4.7321 0 1 1 16.25 0z" transform="matrix(-.86402 -.33298 .40634 -.80208 101.76 205.69)"/>
    <path id="path3988" style="fill:url(#radialGradient26087)" d="m95 69.732a8.125 4.7321 0 1 1 -16.25 0 8.125 4.7321 0 1 1 16.25 0z" transform="matrix(-.80044 -.24857 .37644 -.74077 127.92 211.58)"/>
    <path id="path3990" style="fill:url(#radialGradient26089)" d="m95 69.732a8.125 4.7321 0 1 1 -16.25 0 8.125 4.7321 0 1 1 16.25 0z" transform="matrix(-.78909 -.22508 .37111 -.66419 153.78 220.24)"/>
    <path id="path3992" style="fill:url(#radialGradient26073)" d="m95 69.732a8.125 4.7321 0 1 1 -16.25 0 8.125 4.7321 0 1 1 16.25 0z" transform="matrix(.0032932 -.71502 .16851 -.078806 126.63 142.25)"/>
    <path id="path30590" style="fill:white" d="m139.03 69.207c0.27 0.787 0.45 2.714 0.43 5.063-0.01 3.206-0.4 5.95-0.84 6.156-0.01 0.005-0.02-0.002-0.03 0 0.1 0.305 0.22 0.463 0.34 0.406 0.44-0.206 0.83-2.981 0.85-6.187 0.01-3.107-0.33-5.479-0.75-5.438z"/>
    <path id="path3994" style="fill:url(#radialGradient26075)" d="m95 69.732a8.125 4.7321 0 1 1 -16.25 0 8.125 4.7321 0 1 1 16.25 0z" transform="matrix(.0031725 -.68882 .16234 -.075918 126.35 174.19)"/>
    <path id="path3996" style="fill:url(#radialGradient26077)" d="m95 69.732a8.125 4.7321 0 1 1 -16.25 0 8.125 4.7321 0 1 1 16.25 0z" transform="matrix(.0030039 -.65220 .15371 -.071881 129.54 171.38)"/>
    <path id="path3998" style="fill:url(#radialGradient26079)" d="m95 69.732a8.125 4.7321 0 1 1 -16.25 0 8.125 4.7321 0 1 1 16.25 0z" transform="matrix(.0032932 -.71502 .16851 -.078806 122.75 175.96)"/>
    <path id="path4002" style="fill:url(#radialGradient26083)" d="m95 69.732a8.125 4.7321 0 1 1 -16.25 0 8.125 4.7321 0 1 1 16.25 0z" transform="matrix(.0032932 -.71502 .16851 -.078806 124.3 205.99)"/>
    <path id="path4004" style="fill:url(#radialGradient23378)" d="m95 69.732a8.125 4.7321 0 1 1 -16.25 0 8.125 4.7321 0 1 1 16.25 0z" transform="matrix(-.95604 -.072271 0 .95283 307.18 20.151)"/>
    <path id="path4006" style="fill:url(#radialGradient24271)" d="m95 69.732a8.125 4.7321 0 1 1 -16.25 0 8.125 4.7321 0 1 1 16.25 0z" transform="matrix(.67960 -.55018 .52885 .58839 174.47 129.07)"/>
    <path id="path4008" style="fill:url(#radialGradient25176)" d="m95 69.732a8.125 4.7321 0 1 1 -16.25 0 8.125 4.7321 0 1 1 16.25 0z" transform="matrix(.72530 -.57533 .63815 .50541 119.41 154.34)"/>
    <path id="path4010" style="fill:url(#radialGradient25180)" d="m95 69.732a8.125 4.7321 0 1 1 -16.25 0 8.125 4.7321 0 1 1 16.25 0z" transform="matrix(.56274 -.48308 .54677 .35358 171.78 170.91)"/>
    <path id="path4012" style="fill:url(#radialGradient25178)" d="m95 69.732a8.125 4.7321 0 1 1 -16.25 0 8.125 4.7321 0 1 1 16.25 0z" transform="matrix(.63115 -.55575 .66009 .31822 118.86 195.59)"/>
    <path id="path4014" style="fill:url(#radialGradient25170)" d="m95 69.732a8.125 4.7321 0 1 1 -16.25 0 8.125 4.7321 0 1 1 16.25 0z" transform="matrix(-.24877 -.84544 -.50898 .059272 247.68 199.65)"/>
    <path id="path4016" style="fill:url(#radialGradient25172)" d="m95 69.732a8.125 4.7321 0 1 1 -16.25 0 8.125 4.7321 0 1 1 16.25 0z" transform="matrix(-.23198 -.73752 -.41042 .072304 225.91 187.86)"/>
    <path id="path4018" style="fill:url(#radialGradient25174)" d="m95 69.732a8.125 4.7321 0 1 1 -16.25 0 8.125 4.7321 0 1 1 16.25 0z" transform="matrix(-.22525 -.71774 -.36307 .080569 231.89 217.79)"/>
    <path id="path4020" style="fill:url(#radialGradient25164)" d="m95 69.732a8.125 4.7321 0 1 1 -16.25 0 8.125 4.7321 0 1 1 16.25 0z" transform="matrix(-.24674 -.76584 -.44320 .053691 219.52 159.84)"/>
    <path id="path4024" style="fill:url(#radialGradient25168)" d="m95 69.732a8.125 4.7321 0 1 1 -16.25 0 8.125 4.7321 0 1 1 16.25 0z" transform="matrix(-.17458 -.66153 -.35899 .046379 206.24 182.7)"/>
    <path id="path18928" style="fill:white" d="m85.625 64.645c-4.033 0.54-6.844 2.897-6.844 5.386 0 0.728 0.315 1.369 0.844 1.938-0.104-0.286-0.156-0.564-0.156-0.875 0-2.489 3.181-4.848 7.469-5.172 3.02-0.228 6.101 0.748 7.503 2.328-1.14-2.683-5.332-4.07-8.816-3.605z"/>
    <path id="path21590" style="fill:white" d="m226.58 75.145c-3.7-0.661-10.12-0.057-10.12 4.054 1.86-2.767 5.28-3.079 8.94-2.664 3 0.343 6.49 2.326 6.47 5.011 1.4-3.074-2.5-5.903-5.29-6.401z"/>
    <path id="path27873" style="fill:white" d="m48.057 118.12c-0.169 0.18-0.328 0.35-0.438 0.56-1.061 2.1 1.219 5.04 5.094 6.54 3.875 1.49 7.907 1 8.969-1.1 0.03-0.06 0.038-0.12 0.062-0.19-1.467 1.58-5.024 1.84-8.5 0.5-3.765-1.45-6.036-4.23-5.187-6.31z"/>
    <path id="path28774" style="fill:white" d="m78.131 136.63c-0.144 0.16-0.282 0.3-0.37 0.48-0.854 1.77 1.418 4 5.073 4.95 3.656 0.95 7.34 0.28 8.194-1.49 0.025-0.05 0.028-0.1 0.047-0.15-1.258 1.37-4.518 1.82-7.797 0.97-3.552-0.92-5.806-3.02-5.147-4.76z"/>
    <path id="path28776" style="fill:white" d="m104.48 153.11c-0.61 3.77 3.59 5.05 6.24 5.28 2.65 0.22 6.68-0.13 7.02-2.95-0.78 2.06-3.6 2.33-6.92 2.15-3.41-0.19-6.46-2.13-6.34-4.48z"/>
    <path id="path28782" style="fill:white" d="m276.16 118.28c0.74 1.67-0.64 4.51-3.38 6.72-2.76 2.23-5.95 3.06-7.56 2.06 0.08 0.18 0.18 0.35 0.31 0.5 1.38 1.54 4.98 0.78 8.03-1.68 3.05-2.47 4.42-5.72 3.03-7.26-0.12-0.13-0.27-0.24-0.43-0.34z"/>
    <path id="path29672" style="fill:white" d="m263.84 150c0.66 1.43-0.57 3.84-3 5.73-2.45 1.9-5.29 2.61-6.72 1.76 0.08 0.15 0.16 0.3 0.28 0.42 1.23 1.32 4.43 0.67 7.13-1.43 2.71-2.11 3.93-4.88 2.7-6.19-0.11-0.11-0.25-0.2-0.39-0.29z"/>
    <path id="path29674" style="fill:white" d="m225.42 165.31c0.77 1.62-0.66 4.37-3.47 6.51-2.84 2.17-6.13 2.97-7.79 2 0.09 0.18 0.18 0.34 0.32 0.49 1.42 1.49 5.13 0.75 8.27-1.64s4.54-5.53 3.12-7.02c-0.13-0.14-0.29-0.24-0.45-0.34z"/>
    <path id="path29676" style="fill:white" d="m232.78 134.96c0.82 1.74-0.7 4.68-3.68 6.98-3.01 2.32-6.5 3.18-8.26 2.14 0.09 0.19 0.19 0.37 0.34 0.52 1.51 1.6 5.44 0.81 8.77-1.75s4.82-5.93 3.31-7.53c-0.14-0.15-0.31-0.25-0.48-0.36z"/>
    <path id="path29682" style="fill:white" d="m187.66 123.91c-1.33 0.15-1.49 3.36-0.38 7.15 1.12 3.79 3.11 6.75 4.44 6.6 0.27-0.04 0.48-0.21 0.66-0.47-1.33-0.13-3.19-2.98-4.26-6.6-0.89-3.02-0.93-5.66-0.24-6.68-0.07-0.01-0.16-0.01-0.22 0z"/>
    <path id="path30576" style="fill:white" d="m174.69 122.99c-1.18 0.14-1.33 3-0.33 6.38s2.78 6.02 3.96 5.88c0.24-0.03 0.44-0.18 0.59-0.42-1.18-0.11-2.85-2.65-3.8-5.88-0.79-2.69-0.83-5.05-0.22-5.96-0.06-0.01-0.14-0.01-0.2 0z"/>
    <path id="path30578" style="fill:white" d="m184.78 155.34c-1.11 0.13-1.24 2.9-0.31 6.16 0.93 3.27 2.6 5.81 3.71 5.68 0.22-0.03 0.4-0.18 0.55-0.41-1.11-0.1-2.67-2.56-3.56-5.67-0.74-2.61-0.78-4.88-0.2-5.76-0.06-0.01-0.13-0.01-0.19 0z"/>
    <path id="path30580" style="fill:white" d="m164.59 90.995c-1.35 0.143-1.51 3.107-0.38 6.608 1.14 3.497 3.16 6.227 4.51 6.087 0.28-0.03 0.5-0.19 0.67-0.43-1.34-0.12-3.24-2.75-4.32-6.09-0.9-2.793-0.95-5.226-0.25-6.175-0.07-0.006-0.16-0.006-0.23 0z"/>
    <path id="path30584" style="fill:white" d="m164.03 123.38c-1.01 0.12-1.13 2.65-0.28 5.63 0.84 2.98 2.34 5.31 3.35 5.19 0.2-0.02 0.36-0.16 0.49-0.37-0.99-0.1-2.4-2.34-3.21-5.19-0.67-2.38-0.7-4.45-0.19-5.26-0.05-0.01-0.11-0.01-0.16 0z"/>
    <path id="path31484" style="fill:white" d="m138.29 103.86c0.26 0.75 0.44 2.61 0.42 4.87-0.01 3.09-0.38 5.73-0.81 5.93-0.01 0.01-0.02 0-0.03 0 0.1 0.3 0.22 0.45 0.33 0.39 0.43-0.19 0.8-2.87 0.82-5.96 0.01-2.99-0.32-5.27-0.73-5.23z"/>
    <path id="path31486" style="fill:white" d="m140.83 104.71c0.25 0.72 0.41 2.47 0.4 4.62-0.01 2.92-0.37 5.42-0.77 5.61-0.01 0.01-0.02 0-0.03 0 0.09 0.28 0.2 0.42 0.31 0.37 0.41-0.19 0.76-2.72 0.77-5.64 0.02-2.84-0.3-5-0.68-4.96z"/>
    <path id="path31488" style="fill:white" d="m135.16 102.9c0.27 0.78 0.45 2.71 0.44 5.06-0.02 3.21-0.41 5.95-0.85 6.16-0.01 0-0.02-0.01-0.03 0 0.1 0.3 0.23 0.46 0.35 0.4 0.44-0.2 0.83-2.98 0.84-6.18 0.01-3.11-0.33-5.48-0.75-5.44z"/>
    <path id="path31492" style="fill:white" d="m136.65 132.84c0.27 0.79 0.45 2.71 0.44 5.06-0.02 3.21-0.4 5.95-0.84 6.16h-0.04c0.11 0.3 0.23 0.46 0.35 0.4 0.44-0.2 0.83-2.98 0.84-6.18 0.02-3.11-0.33-5.48-0.75-5.44z"/>
  </g>
  <metadata>
    <rdf:RDF>
      <cc:Work>
        <dc:format>image/svg+xml</dc:format>
        <dc:type rdf:resource="http://purl.org/dc/dcmitype/StillImage"/>
        <cc:license rdf:resource="http://creativecommons.org/licenses/publicdomain/"/>
        <dc:publisher>
          <cc:Agent rdf:about="http://openclipart.org/">
            <dc:title>Openclipart</dc:title>
          </cc:Agent>
        </dc:publisher>
        <dc:title>dice_11</dc:title>
        <dc:date>2009-05-23T13:36:33</dc:date>
        <dc:description>An image of two dices</dc:description>
        <dc:source>https://openclipart.org/detail/26201/dice_11-by-jeronimo-26201</dc:source>
        <dc:creator>
          <cc:Agent>
            <dc:title>jeronimo</dc:title>
          </cc:Agent>
        </dc:creator>
        <dc:subject>
          <rdf:Bag>
            <rdf:li>dice</rdf:li>
            <rdf:li>game</rdf:li>
            <rdf:li>games</rdf:li>
            <rdf:li>how i did it</rdf:li>
            <rdf:li>ivory</rdf:li>
            <rdf:li>parlour</rdf:li>
            <rdf:li>parlour games</rdf:li>
            <rdf:li>probability</rdf:li>
          </rdf:Bag>
        </dc:subject>
      </cc:Work>
      <cc:License rdf:about="http://creativecommons.org/licenses/publicdomain/">
        <cc:permits rdf:resource="http://creativecommons.org/ns#Reproduction"/>
        <cc:permits rdf:resource="http://creativecommons.org/ns#Distribution"/>
        <cc:permits rdf:resource="http://creativecommons.org/ns#DerivativeWorks"/>
      </cc:License>
    </rdf:RDF>
  </metadata>
</svg>
