<?xml version="1.0"?>
<svg xmlns:rdf="http://www.w3.org/1999/02/22-rdf-syntax-ns#" xmlns="http://www.w3.org/2000/svg" xmlns:cc="http://web.resource.org/cc/" xmlns:xlink="http://www.w3.org/1999/xlink" xmlns:dc="http://purl.org/dc/elements/1.1/" xmlns:svg="http://www.w3.org/2000/svg" id="Layer_1" xml:space="preserve" overflow="visible" viewBox="0 0 614.664 299.889" version="1.1" enable-background="new 0 0 614.664 299.889">
<polygon points="46.332 84.778 46.332 304.78 498 260.61 498 57.278" fill="#DAC793"/>
<polygon fill="#E7D8AC" stroke="#919191" stroke-width="1.6871" stroke-miterlimit="11.5" points="206.76 93.315 339.58 85.305 339.58 164 206.76 174.36"/>
<polyline points="205.11 86.544 341.79 78.302 341.79 85.873 205.11 95.292 205.11 86.544" fill="#E7D8AC"/>
<polygon fill="none" stroke="#919191" stroke-width="1.6871" stroke-miterlimit="11.5" points="205.11 86.544 341.79 78.302 341.79 85.873 205.11 95.292"/>
<path d="m276.48 100.53l11.534-0.863c4.104-0.31 7.481 3.021 7.481 7.369 0 4.351-3.377 8.18-7.481 8.487l-23.068 1.728c-4.103 0.307-7.479-3.021-7.479-7.368 0-4.35 3.376-8.181 7.479-8.489l11.54-0.87" fill="#939BA1"/>
<path stroke="#919191" stroke-width="1.6871" stroke-miterlimit="11.5" d="m276.48 100.53l11.534-0.863c4.104-0.31 7.481 3.021 7.481 7.369 0 4.351-3.377 8.18-7.481 8.487l-23.068 1.728c-4.103 0.307-7.479-3.021-7.479-7.368 0-4.35 3.376-8.181 7.479-8.489l11.54-0.87z" fill="none"/>
<polyline points="258.59 106.79 294.41 103.98 294.41 109.85 258.59 112.66" fill="#E7D8AC"/>
<polygon fill="none" stroke="#919191" stroke-width="1.6871" stroke-miterlimit="11.5" points="258.59 106.79 294.41 103.98 294.41 109.85 258.59 112.66"/>
<polygon fill="#E7D8AC" stroke="#919191" stroke-width="1.6871" stroke-miterlimit="11.5" points="363.34 178.05 496.7 168.25 496.7 247.27 363.34 259.44"/>
<polyline points="361.67 171.27 498.91 161.19 498.91 168.79 361.67 180.06 361.67 171.27" fill="#E7D8AC"/>
<polygon fill="none" stroke="#919191" stroke-width="1.6871" stroke-miterlimit="11.5" points="361.67 171.27 498.91 161.19 498.91 168.79 361.67 180.06"/>
<path d="m433.34 184.36l11.581-1.021c4.118-0.362 7.51 2.934 7.51 7.301 0 4.365-3.392 8.262-7.51 8.623l-23.165 2.039c-4.118 0.362-7.509-2.933-7.509-7.3 0-4.365 3.391-8.262 7.509-8.623l11.58-1.02" fill="#939BA1"/>
<path stroke="#919191" stroke-width="1.6871" stroke-miterlimit="11.5" d="m433.34 184.36l11.581-1.021c4.118-0.362 7.51 2.934 7.51 7.301 0 4.365-3.392 8.262-7.51 8.623l-23.165 2.039c-4.118 0.362-7.509-2.933-7.509-7.3 0-4.365 3.391-8.262 7.509-8.623l11.58-1.02z" fill="none"/>
<polyline points="415.38 190.9 451.35 187.61 451.35 193.5 415.38 196.8" fill="#E7D8AC"/>
<polygon fill="none" stroke="#919191" stroke-width="1.6871" stroke-miterlimit="11.5" points="415.38 190.9 451.35 187.61 451.35 193.5 415.38 196.8"/>
<polygon fill="#E7D8AC" stroke="#919191" stroke-width="1.6871" stroke-miterlimit="11.5" points="50.574 205.62 188.67 194.54 188.67 276.36 50.574 289.89"/>
<polyline points="48.855 198.62 190.96 187.21 190.96 195.08 48.855 207.71 48.855 198.62" fill="#E7D8AC"/>
<polygon fill="none" stroke="#919191" stroke-width="1.6871" stroke-miterlimit="11.5" points="48.855 198.62 190.96 187.21 190.96 195.08 48.855 207.71"/>
<path d="m123.06 211.68l11.992-1.136c4.266-0.405 7.776 2.983 7.776 7.506 0 4.521-3.511 8.576-7.776 8.98l-23.98 2.27c-4.267 0.405-7.778-2.98-7.778-7.506 0-4.521 3.511-8.577 7.778-8.981l11.99-1.13" fill="#939BA1"/>
<path stroke="#919191" stroke-width="1.6871" stroke-miterlimit="11.5" d="m123.06 211.68l11.992-1.136c4.266-0.405 7.776 2.983 7.776 7.506 0 4.521-3.511 8.576-7.776 8.98l-23.98 2.27c-4.267 0.405-7.778-2.98-7.778-7.506 0-4.521 3.511-8.577 7.778-8.981l11.99-1.13z" fill="none"/>
<polyline points="104.44 218.58 141.69 214.91 141.69 221.02 104.44 224.68" fill="#E7D8AC"/>
<polygon fill="none" stroke="#919191" stroke-width="1.6871" stroke-miterlimit="11.5" points="104.44 218.58 141.69 214.91 141.69 221.02 104.44 224.68"/>
<path stroke="#919191" stroke-width="1.6871" stroke-miterlimit="11.5" d="m47.302 190.12l438.51-32.12m-437.11 141.05l446.89-46.084m-446.89-164.8l435.71-26.533m-131.27 17.424l4.188 199.45m-11.17-200.19l4.188 201.67m-149.43-200.19l1.397 209.06m-8.38-209.06l1.396 210.54" fill="none"/>
<polyline points="493.96 66.55 516.89 86.719 516.89 165.35 493.96 145.18 493.96 66.55" fill="#646464"/>
<polygon fill="none" stroke="#000" stroke-width="1.6871" stroke-miterlimit="11.5" points="493.96 66.55 516.89 86.719 516.89 165.35 493.96 145.18"/>
<polyline points="360.78 75.535 494.57 67.251 494.57 143.79 360.78 154.36 360.78 75.535" fill="#aaa"/>
<polygon fill="none" stroke="#000" stroke-width="1.6871" stroke-miterlimit="11.5" points="360.78 75.535 494.57 67.251 494.57 143.79 360.78 154.36"/>
<polyline points="361.38 75.349 384.32 95.52 384.32 174.15 361.38 153.98 361.38 75.349" fill="#D7D7D7"/>
<polygon fill="none" stroke="#000" stroke-width="1.6871" stroke-miterlimit="11.5" points="361.38 75.349 384.32 95.52 384.32 174.15 361.38 153.98"/>
<polygon fill="#E7D8AC" stroke="#000" stroke-width="1.6871" stroke-miterlimit="11.5" points="383.84 94.99 519.86 86.385 519.86 166.98 383.84 177.99"/>
<polyline points="382.14 88.059 522.12 79.206 522.12 86.96 382.14 97.017 382.14 88.059" fill="#E7D8AC"/>
<polygon fill="none" stroke="#000" stroke-width="1.6871" stroke-miterlimit="11.5" points="382.14 88.059 522.12 79.206 522.12 86.96 382.14 97.017"/>
<path d="m455.24 102.16l11.812-0.919c4.201-0.325 7.66 3.07 7.66 7.523 0 4.455-3.459 8.392-7.66 8.717l-23.625 1.837c-4.2 0.328-7.659-3.066-7.659-7.521s3.459-8.389 7.659-8.717l11.82-0.92" fill="#939BA1"/>
<path stroke="#000" stroke-width="1.6871" stroke-miterlimit="11.5" d="m455.24 102.16l11.812-0.919c4.201-0.325 7.66 3.07 7.66 7.523 0 4.455-3.459 8.392-7.66 8.717l-23.625 1.837c-4.2 0.328-7.659-3.066-7.659-7.521s3.459-8.389 7.659-8.717l11.82-0.92z" fill="none"/>
<polyline points="436.89 108.64 473.58 105.66 473.58 111.68 436.89 114.66" fill="#E7D8AC"/>
<polygon fill="none" stroke="#000" stroke-width="1.6871" stroke-miterlimit="11.5" points="436.89 108.64 473.58 105.66 473.58 111.68 436.89 114.66"/>
<polyline points="400.26 139.06 504.92 130.97 504.92 152.62 400.26 160.71" fill="#E7D8AC"/>
<polygon fill="#fff" stroke="#000" stroke-width="1.6871" stroke-miterlimit="11.5" points="400.26 139.06 504.92 130.97 504.92 152.62 400.26 160.71"/>
<polyline points="341.25 175.64 364.54 195.71 364.54 275.54 341.25 255.46 341.25 175.64" fill="#646464"/>
<polygon fill="none" stroke="#000" stroke-width="1.6871" stroke-miterlimit="11.5" points="341.25 175.64 364.54 195.71 364.54 275.54 341.25 255.46"/>
<polyline points="206.04 187.05 341.87 176.32 341.87 254.03 206.04 267.07 206.04 187.05" fill="#aaa"/>
<polygon fill="none" stroke="#000" stroke-width="1.6871" stroke-miterlimit="11.5" points="206.04 187.05 341.87 176.32 341.87 254.03 206.04 267.07"/>
<polyline points="206.66 186.86 229.94 206.94 229.94 286.76 206.66 266.68 206.66 186.86" fill="#D7D7D7"/>
<polygon fill="none" stroke="#000" stroke-width="1.6871" stroke-miterlimit="11.5" points="206.66 186.86 229.94 206.94 229.94 286.76 206.66 266.68"/>
<polygon fill="#E7D8AC" stroke="#000" stroke-width="1.6871" stroke-miterlimit="11.5" points="229.45 206.4 367.55 195.32 367.55 277.14 229.45 290.67"/>
<polyline points="227.73 199.4 369.84 187.99 369.84 195.86 227.73 208.49 227.73 199.4" fill="#E7D8AC"/>
<polygon fill="none" stroke="#000" stroke-width="1.6871" stroke-miterlimit="11.5" points="227.73 199.4 369.84 187.99 369.84 195.86 227.73 208.49"/>
<path d="m301.94 212.45l11.993-1.138c4.269-0.404 7.777 2.982 7.777 7.506 0 4.521-3.511 8.575-7.777 8.979l-23.985 2.276c-4.265 0.402-7.776-2.985-7.776-7.509 0-4.521 3.511-8.576 7.776-8.981l12-1.14" fill="#939BA1"/>
<path stroke="#000" stroke-width="1.6871" stroke-miterlimit="11.5" d="m301.94 212.45l11.993-1.138c4.269-0.404 7.777 2.982 7.777 7.506 0 4.521-3.511 8.575-7.777 8.979l-23.985 2.276c-4.265 0.402-7.776-2.985-7.776-7.509 0-4.521 3.511-8.576 7.776-8.981l12-1.14z" fill="none"/>
<polyline points="283.32 219.36 320.57 215.7 320.57 221.8 283.32 225.46" fill="#E7D8AC"/>
<polygon fill="none" stroke="#000" stroke-width="1.6871" stroke-miterlimit="11.5" points="283.32 219.36 320.57 215.7 320.57 221.8 283.32 225.46"/>
<polyline points="183.32 87.222 206.61 108.06 206.61 187.88 183.32 167.04 183.32 87.222" fill="#646464"/>
<polygon fill="none" stroke="#000" stroke-width="1.6871" stroke-miterlimit="11.5" points="183.32 87.222 206.61 108.06 206.61 187.88 183.32 167.04"/>
<polyline points="48.113 94.221 183.94 87.927 183.94 165.63 48.113 174.25 48.113 94.221" fill="#aaa"/>
<polygon fill="none" stroke="#000" stroke-width="1.6871" stroke-miterlimit="11.5" points="48.113 94.221 183.94 87.927 183.94 165.63 48.113 174.25"/>
<polyline points="48.726 94.055 72.01 114.9 72.01 194.72 48.726 173.88 48.726 94.055" fill="#D7D7D7"/>
<polygon fill="none" stroke="#000" stroke-width="1.6871" stroke-miterlimit="11.5" points="48.726 94.055 72.01 114.9 72.01 194.72 48.726 173.88"/>
<polygon fill="#E7D8AC" stroke="#000" stroke-width="1.6871" stroke-miterlimit="11.5" points="71.522 114.34 209.62 107.76 209.62 189.58 71.522 198.61"/>
<polyline points="69.804 107.28 211.91 100.51 211.91 108.38 69.804 116.37 69.804 107.28" fill="#E7D8AC"/>
<polygon fill="none" stroke="#000" stroke-width="1.6871" stroke-miterlimit="11.5" points="69.804 107.28 211.91 100.51 211.91 108.38 69.804 116.37"/>
<path d="m144.01 122.76l11.993-0.747c4.265-0.265 7.776 3.239 7.776 7.761s-3.511 8.462-7.776 8.728l-23.986 1.493c-4.266 0.265-7.776-3.238-7.776-7.761 0-4.521 3.511-8.462 7.776-8.728l12-0.74" fill="#939BA1"/>
<path stroke="#000" stroke-width="1.6871" stroke-miterlimit="11.5" d="m144.01 122.76l11.993-0.747c4.265-0.265 7.776 3.239 7.776 7.761s-3.511 8.462-7.776 8.728l-23.986 1.493c-4.266 0.265-7.776-3.238-7.776-7.761 0-4.521 3.511-8.462 7.776-8.728l12-0.74z" fill="none"/>
<polyline points="125.39 129.02 162.64 126.58 162.64 132.68 125.39 135.13" fill="#E7D8AC"/>
<polygon fill="none" stroke="#000" stroke-width="1.6871" stroke-miterlimit="11.5" points="125.39 129.02 162.64 126.58 162.64 132.68 125.39 135.13"/>
<polyline points="111.37 153.32 176.1 149.44 176.1 171.42 111.37 175.3" fill="#E7D8AC"/>
<polygon fill="#fff" stroke="#000" stroke-width="1.6871" stroke-miterlimit="11.5" points="111.37 153.32 176.1 149.44 176.1 171.42 111.37 175.3"/>
<polyline points="263.83 246.59 343.82 239.24 343.82 261.22 263.83 268.58" fill="#E7D8AC"/>
<polygon fill="#fff" stroke="#000" stroke-width="1.6871" stroke-miterlimit="11.5" points="263.83 246.59 343.82 239.24 343.82 261.22 263.83 268.58"/>
<metadata><rdf:RDF><cc:Work><dc:format>image/svg+xml</dc:format><dc:type rdf:resource="http://purl.org/dc/dcmitype/StillImage"/><cc:license rdf:resource="http://creativecommons.org/licenses/publicdomain/"/><dc:publisher><cc:Agent rdf:about="http://openclipart.org/"><dc:title>Openclipart</dc:title></cc:Agent></dc:publisher><dc:title>file cabnet drawers</dc:title><dc:date>2006-10-16T20:10:55</dc:date><dc:description>a drawing of 6 file cabinet drawers with 3 of them pulled out and highlighted.  From a NASA activity book</dc:description><dc:source>http://openclipart.org/detail/676/file-cabnet-drawers-by-johnny_automatic-676</dc:source><dc:creator><cc:Agent><dc:title>johnny_automatic</dc:title></cc:Agent></dc:creator><dc:subject><rdf:Bag><rdf:li>clip art</rdf:li><rdf:li>clipart</rdf:li><rdf:li>drawers</rdf:li><rdf:li>file cabinet</rdf:li><rdf:li>files</rdf:li><rdf:li>furniture</rdf:li><rdf:li>image</rdf:li><rdf:li>media</rdf:li><rdf:li>nasa</rdf:li><rdf:li>office</rdf:li><rdf:li>png</rdf:li><rdf:li>public domain</rdf:li><rdf:li>svg</rdf:li></rdf:Bag></dc:subject></cc:Work><cc:License rdf:about="http://creativecommons.org/licenses/publicdomain/"><cc:permits rdf:resource="http://creativecommons.org/ns#Reproduction"/><cc:permits rdf:resource="http://creativecommons.org/ns#Distribution"/><cc:permits rdf:resource="http://creativecommons.org/ns#DerivativeWorks"/></cc:License></rdf:RDF></metadata></svg>
