<?xml version="1.0" encoding="iso-8859-1"?>
<!-- Generator: Adobe Illustrator 16.0.4, SVG Export Plug-In . SVG Version: 6.00 Build 0)  -->
<!DOCTYPE svg PUBLIC "-//W3C//DTD SVG 1.1//EN" "http://www.w3.org/Graphics/SVG/1.1/DTD/svg11.dtd">
<svg version="1.1" id="seq-4__x28_6_x29__xA0_Image_1_"
	 xmlns="http://www.w3.org/2000/svg" xmlns:xlink="http://www.w3.org/1999/xlink" x="0px" y="0px" width="254.16px"
	 height="259.92px" viewBox="0 0 254.16 259.92" style="enable-background:new 0 0 254.16 259.92;" xml:space="preserve">
<g>
	<path style="fill-rule:evenodd;clip-rule:evenodd;" d="M60.358,31.321c2.53-1.421,5.352-1.354,8.072-1.267
		c2.08,0.066,3.606,1.604,5.196,3.291c-1.422,0.374-2.394,0.001-3.265-0.708c-1.126-0.916-2.677-1.125-3.62-0.332
		c0.845,0.31,1.631,0.597,2.416,0.887c1.516,0.561,2.849,1.34,4.191,2.317c2.006,1.459,3.054,3.753,5.094,5.084
		c0.364,0.237,0.771,0.556,1.167,0.567c0.907,0.026,1.399,0.348,1.774,1.222c0.332,0.774,2.067,0.746,2.659,0.083
		c0.732-0.82,1.145-0.702,1.588,0.34c0.139,0.328,0.507,0.688,0.84,0.782c2.835,0.802,5.703,1.491,8.527,2.328
		c1.664,0.493,2.645,2.507,2.252,4.171c-0.144,0.61-0.169,1.248-0.224,1.676c0.671,0.482,1.476,0.765,1.632,1.254
		c0.155,0.488-0.34,1.183-0.597,1.92c-0.415-0.151-0.929-0.174-1.092-0.425c-0.957-1.466-2.543-1.174-3.867-1.291
		c-0.958-0.084-2,0.435-2.95,0.821c-0.281,0.114-0.372,0.694-0.631,1.227c-0.663-0.062-1.475-0.204-2.282-0.181
		c-0.337,0.01-0.764,0.299-0.972,0.589c-0.265,0.369-0.349,0.867-0.517,1.328c-1.141,0.3-0.931-0.491-0.961-1.19
		c-0.207,0.315-0.414,0.631-0.732,1.114c-0.255-0.562-0.422-0.93-0.607-1.338c-0.675,0.908-0.675,0.908,0.771,2.686
		c-0.669-0.204-1.333-0.428-2.008-0.609c-1.687-0.45-1.689-0.442-1.495,1.187c-0.097,0.051-0.194,0.102-0.292,0.152
		c-0.232-0.445-0.464-0.89-0.577-1.105c-0.266,0.16-0.759,0.671-1.006,0.572c-2.084-0.841-3.684-0.078-5.137,1.354
		c-0.109,0.107-0.236,0.196-0.355,0.294c-0.09-0.061-0.18-0.122-0.27-0.183c0.555-0.796,1.057-1.638,1.681-2.376
		c0.611-0.722,1.344-1.342,2.027-2.003c0.541-0.522,0.488-0.913-0.185-1.298c-0.573-0.329-1.085-0.765-1.627-1.154
		c-1.11,0.982-2.286,1.974-3.403,3.026c-0.714,0.673-0.888,1.472-0.273,2.356c0.431,0.62,0.843,1.261,1.174,1.936
		c0.128,0.261,0.099,0.687-0.033,0.949c-0.066,0.13-0.595,0.176-0.8,0.059c-0.649-0.373-1.376-0.733-1.833-1.293
		c-0.757-0.93-1.117-0.623-1.674,0.174c-1.969,2.815-3.689,5.727-4.418,9.151c-0.244,1.145-0.738,2.248-1.219,3.324
		c-0.155,0.347-0.632,0.55-0.962,0.819c-0.112-0.08-0.223-0.161-0.334-0.241c0.219-0.827,0.439-1.654,0.658-2.481
		c-0.936,0.607-1.486,1.711-2.943,1.175c-0.62,1.475-1.212,2.883-1.928,4.586c-0.26-0.614-0.53-1.058-0.632-1.539
		c-0.156-0.733-0.53-0.803-1.123-0.542c-0.363,0.161-0.734,0.301-1.1,0.456c-1.263,0.534-2.249,1.188-2.261,2.832
		c-0.01,1.291-0.381,2.578-0.602,3.927c0.731,0.069,1.345-0.096,1.627-0.992c0.084-0.269,0.363-0.533,0.62-0.682
		c1.147-0.663,2.351-1.232,3.476-1.928c2.604-1.612,5.199-3.256,7.091-5.74c0.455-0.597,0.678-1.421,1.71-0.805
		c-0.173-2.17,0.399-2.993,1.862-2.741c-0.245-1.873,1.627-2.229,2.401-3.394c1.095-1.649,2.564,0.189,3.867-0.732
		c-0.231-0.151-0.502-0.359-0.802-0.515c-0.359-0.187-0.742-0.328-1.059-0.626c1.62,0.17,3.54-0.845,4.758,1.428
		c-0.893,0-1.656,0-2.713,0c0.936,0.406,1.622,0.678,2.283,0.999c0.813,0.395,0.975,0.919,0.413,1.721
		c-0.35,0.498-0.49,1.142-0.752,1.789c0.787,0.32,1.44,0.562,2.069,0.856c0.182,0.086,0.293,0.325,0.437,0.493
		c-0.195,0.163-0.386,0.459-0.586,0.465c-1.111,0.032-2.225,0.015-3.336-0.025c-2.351-0.085-4.7-0.212-7.052-0.276
		c-0.303-0.009-0.685,0.18-0.909,0.401c-1.262,1.244-1.86,2.817-2.397,4.49c-0.492,1.534-0.207,2.792,0.535,4.079
		c0.124,0.214,0.2,0.455,0.102,0.806c-0.124-0.148-0.241-0.304-0.375-0.442c-0.656-0.682-1.229-1.442-2.417-1.005
		c-0.484,0.178-1.131,0.081-1.659-0.061c-1.179-0.314-1.378,0.152-1.079,1.159c0.029,0.1-0.032,0.227-0.212,0.112
		c-0.913,0.534-1.822,1.072-2.74,1.598c-0.168,0.096-0.36,0.171-0.55,0.205c-1.616,0.281-1.926,0.866-1.257,2.503
		c-0.216,0.139-0.559,0.236-0.642,0.44c-0.14,0.343-0.235,0.8-0.112,1.118c0.074,0.192,0.592,0.291,0.913,0.297
		c1.33,0.024,2.665-0.073,3.989,0.009c1.461,0.09,2.913,0.328,4.445,0.511c0.031-0.341,0.051-0.564,0.073-0.788
		c0.043-0.458,0.088-0.915,0.132-1.372c0.606,0.074,1.374-0.052,1.779,0.272c0.541,0.434,0.873,1.188,1.156,1.862
		c0.209,0.499,0.301,0.875,0.981,0.685c0.362-0.101,0.79-0.038,1.175,0.026c1.41,0.234,1.789-0.125,1.642-1.692
		c-0.174-0.014-0.363-0.052-0.548-0.039c-2.121,0.151-3.65-1.21-3.776-3.373c-0.125-2.135,0.302-4.212,1.128-5.208
		c0,2.386,0,4.688,0,7.02c1.292,0.037,1.792-0.586,2.081-1.565c0.075-0.253,0.487-0.549,0.761-0.567
		c0.466-0.031,0.945,0.144,1.738,0.292c-0.006-0.008,0.202,0.267,0.636,0.84c0.422-0.64,1.013-1.126,1.036-1.639
		c0.118-2.625,1.118-4.964,2.225-7.257c0.245-0.507,0.976-0.78,1.504-0.869c0.589,0.125,1.181,0.238,1.765,0.384
		c0.18,0.045,0.377,0.146,0.499,0.282c0.688,0.765,1.398,1.516,2.005,2.342c0.213,0.29,0.155,0.781,0.22,1.18
		c-0.438,0-0.907,0.102-1.308-0.02c-0.891-0.271-1.728-0.731-2.628-0.947c-0.313-0.075-1.012,0.276-1.078,0.545
		c-0.436,1.771-0.86,3.561-1.062,5.369c-0.161,1.448,1.233,1.935,2.201,2.372c2.083,0.939,3.732,2.364,5.206,4.026
		c0.512,0.577,0.822,1.333,1.221,2.002c0.29-0.03,0.624-0.064,0.958-0.099c-0.076,0.327-0.056,0.739-0.25,0.962
		c-0.339,0.39-0.811,0.664-1.227,0.986c-0.213-0.447-0.55-0.877-0.613-1.345c-0.128-0.956-0.54-1.621-1.386-2.098
		c-0.497-0.28-0.901-0.724-1.349-1.096c0.515,1.214,1.054,2.482,1.592,3.75c-0.156,0.071-0.313,0.141-0.47,0.212
		c-0.161-0.316-0.388-0.617-0.472-0.953c-0.735-2.933-2.938-4.004-5.622-4.438c-1.383-0.224-1.548-0.463-1.333-1.894
		c0.083-0.552-0.055-1.137-0.093-1.707c-0.133,0.007-0.266,0.015-0.398,0.022c-0.031,0.333-0.13,0.675-0.081,0.995
		c0.187,1.201-0.089,1.95-1.213,2.772c-0.898,0.658-1.166,2.181-1.697,3.326c-0.04,0.086,0.009,0.253,0.074,0.341
		c1.429,1.907,2.665,4.02,4.374,5.631c1.042,0.983,2.782,1.309,4.268,1.71c1.064,0.288,3.241-1.245,3.68-2.331
		c0.06-0.147,0.089-0.382,0.195-0.425c1.74-0.71,2.041-2.656,3.26-3.826c0.327-0.314,0.354-1.175,0.209-1.699
		c-0.371-1.336-0.962-2.61-1.382-3.935c-0.781-2.464-0.07-4.887,0.223-7.337c0.396-3.311,0.449-6.663-1.478-9.596
		c-0.946-1.44-2.229-2.659-3.359-3.978c-0.055,0.095-0.109,0.191-0.164,0.286c-0.471,0.062-0.942,0.123-1.414,0.184
		c0.118-0.567,0.237-1.135,0.339-1.628c5.002,1.599,6.082,6.075,7.904,9.948c0.692-1.039,0.519-6.396-0.297-8.554
		c-1.069-2.829-3.52-4.524-5.591-6.533c0.091-0.133,0.183-0.267,0.274-0.399c0.599,0.272,1.324,0.411,1.773,0.839
		c1.87,1.78,3.788,3.587,4.68,6.08c0.595,1.663,0.878,3.44,1.254,5.177c0.096,0.443,0.014,0.926,0.014,1.391
		c0.164,0.009,0.327,0.018,0.49,0.026c0.018-0.958,0.072-1.918,0.038-2.874c-0.019-0.51-0.192-1.014-0.293-1.521
		c-0.27-1.358-0.55-2.714-0.797-4.075c-0.075-0.412-0.056-0.84,0.062-1.299c1.068,1.055,1.298,2.477,1.583,3.808
		c0.289,1.349,0.278,2.762,0.399,4.147c0.066,0.756,0.233,1.519,0.18,2.267c-0.105,1.47-0.063,2.874,1.093,4.195
		c0-2.041,0.037-3.991-0.013-5.939c-0.035-1.348-0.146-2.698-0.306-4.038c-0.129-1.086-0.384-2.156-0.573-3.235
		c-0.016-0.094,0.048-0.203,0.362-0.364c0.562,2.245,1.071,4.505,1.701,6.731c0.609,2.154-0.149,4.611,1.269,6.577
		c0.153-0.012,0.307-0.025,0.459-0.038c0-1.953-0.211-3.936,0.065-5.848c0.235-1.627,0.44-3.183,0.187-4.825
		c-0.354-2.292-1.091-4.413-2.498-6.248c-0.285-0.373-0.963-0.452-1.468-0.646c-0.31-0.12-0.658-0.159-0.948-0.312
		c-0.509-0.269-0.986-0.597-1.542-0.94c-0.222,0.454-0.369,0.756-0.539,1.104c-1.257-0.712-0.542-1.792-0.726-2.753
		c0.28,0,0.552-0.079,0.632,0.012c1.154,1.308,2.805,1.523,4.316,2.097c1.118,0.424,2.094,1.223,3.137,1.847
		c0.363,0.217,0.739,0.41,1.107,0.615c-0.097,0.54-0.347,1.106-0.257,1.612c0.234,1.322,0.657,2.61,0.926,3.928
		c0.135,0.659,0.113,1.352,0.134,2.03c0.021,0.662,0.005,1.325,0.005,2.267c1.482-3.364,0.325-6.335-0.221-9.325
		c-0.035-0.193-0.406-0.325-0.621-0.484c-0.78-1.262-1.56-2.523-2.484-4.018c0.558,0.055,1.084,0.106,2.009,0.196
		c-0.782-0.566-1.388-1.004-2.172-1.571c1.617-0.426,3.299,0.402,4.193,1.56c0.666,0.862,1.616,1.52,2.207,2.42
		c0.454,0.692,0.572,1.616,0.786,2.45c0.071,0.279-0.161,0.712-0.021,0.883c1.284,1.565,0.866,3.47,1.135,5.238
		c0.127,0.837,0.409,1.651,0.62,2.476c0.122-0.006,0.244-0.013,0.365-0.02c0.074-0.562,0.23-1.127,0.21-1.687
		c-0.145-3.933-0.937-7.689-2.879-11.182c-0.478-0.858-0.489-1.976-0.715-2.974c0.15-0.072,0.301-0.145,0.452-0.218
		c0.651,0.703,1.457,1.319,1.919,2.13c0.75,1.314,1.903,2.415,1.925,4.163c0.011,0.896,0.735,1.782,1.245,2.645
		c-0.388-2.431-0.419-4.949-1.714-7.159c-1.299-2.218-3.357-3.583-5.752-4.538c0.074-0.17,0.148-0.34,0.222-0.51
		c0.579,0.084,1.22,0.035,1.725,0.274c2.994,1.417,5.332,3.438,6.124,6.857c0.447,1.933,2.587,3.429,4.225,3.009
		c0.301-0.078,0.547-0.371,0.818-0.565c-0.239-0.212-0.443-0.5-0.721-0.626c-2.22-1.001-3.771-2.645-4.558-4.925
		c-0.467-1.355-1.142-2.375-2.491-3.016c-1.096-0.521-2.066-1.306-3.12-1.992c2.359-0.178,4.938,1.413,6.098,3.4
		c0.95,1.628,2.054,3.221,3.353,4.579c1.653,1.729,3.638,1.445,5.146-0.462c0.096-0.122,0.109-0.311,0.205-0.601
		c0.989,1.438-0.1,2.007-0.584,2.604c-0.514,0.634-1.407,0.947-2.007,1.531c-1.636,1.594-3.353,1.09-5.409,0.209
		c0.076,0.872,0.138,1.594,0.208,2.393c1.811-0.171,3.438-0.324,4.981-0.47c-0.743,1.309-2.318,1.106-3.887,1.236
		c0.993,1.785,2.634,0.753,3.979,1.265c-0.535,1.464-2.2,0.587-3.057,1.477c0.913,0.513,1.709,1.055,2.741-0.144
		c0.134,0.595,0.224,0.994,0.339,1.505c0.149,0.04,0.48,0.128,0.845,0.226c-0.032,0.481-0.062,0.926-0.091,1.372
		c0.118,0.046,0.236,0.093,0.354,0.14c0.313-0.599,0.772-1.165,0.913-1.802c0.411-1.857,0.629-3.758,1.05-5.613
		c0.311-1.37,0.174-3.004,1.791-3.781c0.093-0.045,0.172-0.183,0.199-0.292c0.454-1.845,2.203-2.349,3.398-3.426
		c0.107,0.065,0.215,0.129,0.323,0.194c-0.216,0.393-0.347,0.878-0.661,1.162c-1.855,1.679-2.601,3.843-2.927,6.238
		c-0.323,2.37-0.742,4.727-1.064,7.097c-0.051,0.378,0.122,0.827,0.299,1.19c0.482,0.985,0.997,1.958,1.548,2.907
		c0.636,1.096,1.351,2.145,1.981,3.243c0.622,1.083,1.068,2.285,1.793,3.289c1.207,1.671,0.321,2.905-0.586,4.227
		c-0.229,0.334-0.271,0.797-0.39,1.172c0.169,0.11,0.24,0.196,0.296,0.188c2.181-0.334,2.435-0.084,2.024,2.038
		c-0.11,0.569-0.256,1.13-0.385,1.695c0.109,0.044,0.217,0.088,0.326,0.132c0.316-0.645,0.668-1.275,0.939-1.938
		c0.375-0.918,0.564-1.937,1.075-2.763c0.299-0.484,1.068-0.677,1.626-1.001c0.099,0.537,0.394,1.131,0.259,1.602
		c-0.405,1.41-0.991,2.768-1.483,4.154c-1.041,2.93-0.948,6.014-0.843,9.016c0.098,2.798,0.808,5.58,1.319,8.356
		c0.118,0.636,0.523,1.22,0.796,1.828c0.097-0.022,0.193-0.045,0.289-0.068c-0.073-0.423-0.13-0.85-0.222-1.27
		c-0.932-4.296-1.785-8.6-1.215-13.036c0.02-0.159,0-0.352,0.083-0.467c0.225-0.312,0.497-0.592,0.75-0.885
		c0.081,0.385,0.297,0.797,0.223,1.15c-0.709,3.421-0.245,6.718,0.901,9.96c-0.688-4.256-0.396-8.491,0.23-12.719
		c0.094-0.628,0.263-1.252,0.465-1.855c0.072-0.214,0.349-0.358,0.531-0.535c0.136,0.214,0.405,0.443,0.385,0.641
		c-0.125,1.144-0.191,2.317-0.514,3.412c-0.619,2.102-0.255,7.984,0.673,9.618c0-2.483,0-5.074,0-7.666
		c0.127-0.013,0.254-0.026,0.381-0.04c0.071,0.462,0.222,0.927,0.2,1.385c-0.118,2.6,1.043,4.882,1.762,7.273
		c0.354,1.179,0.769,2.341,1.177,3.503c0.852,2.424,1.717,4.843,2.576,7.264c0.101-0.012,0.201-0.024,0.301-0.037
		c-0.217-1.542-0.454-3.08-0.646-4.624c-0.384-3.088-0.728-6.182-1.116-9.27c-0.223-1.778-0.525-3.546-0.733-5.326
		c-0.043-0.365,0.174-0.761,0.271-1.143c0.315,0.281,0.813,0.506,0.919,0.851c0.961,3.125,1.846,6.274,2.767,9.412
		c0.75,2.558,1.697,5.073,2.236,7.673c0.728,3.511,0.527,6.989-1.536,10.128c-0.153,0.234-0.388,0.449-0.445,0.704
		c-0.078,0.349-0.023,0.728-0.026,1.094c0.314-0.104,0.631-0.202,0.941-0.316c0.283-0.105,0.552-0.302,0.84-0.332
		c1.622-0.167,3.251-0.442,4.871-0.403c2.549,0.062,4.516,0.54,4.147,3.215c-0.123,0.892-0.547,1.433-1.597,1.616
		c-1.727,0.3-3.397,0.776-5.196,0.508c-0.527-0.079-1.145,0.369-1.693,0.633c-0.067,0.033,0.04,0.62,0.062,0.619
		c0.607-0.006,1.259,0.07,1.814-0.121c1.676-0.579,3.24-0.732,4.729,0.498c0.419,0.346,1.002,0.491,1.51,0.729
		c-0.079,0.193-0.159,0.386-0.238,0.579c0.391-0.729,0.781-1.459,1.171-2.188c0.107,0.034,0.214,0.067,0.32,0.101
		c-0.28,0.924-0.351,2.008-0.898,2.729c-0.586,0.772-1.62,1.202-2.441,2.041c0.546-0.067,1.14-0.021,1.628-0.226
		c1.019-0.425,1.965-1.019,2.973-1.473c0.774-0.35,1.65-0.495,2.39-0.898c2.759-1.503,5.483-3.069,8.211-4.629
		c0.256-0.146,0.436-0.424,0.654-0.636c0.351-0.34,0.704-0.677,1.057-1.016c0.3,0.366,0.601,0.732,1.014,1.236
		c0.267-0.388,0.593-0.864,1.085-1.582c0.032,0.502,0.125,0.794,0.056,1.041c-0.898,3.168-1.606,6.411-3.61,9.148
		c-0.225,0.307-0.423,0.742-0.4,1.104c0.186,2.984-1.388,5.108-3.261,7.174c-1.45,1.599-2.693,3.383-4.048,5.068
		c-1.568,1.953-3.167,3.883-4.734,5.837c-0.393,0.489-0.692,1.052-1.073,1.552c-0.62,0.812-1.271,1.601-1.911,2.396
		c-0.074,0.093-0.179,0.16-0.256,0.251c-1.987,2.36-3.955,4.736-5.965,7.076c-1.204,1.401-2.512,2.715-3.705,4.124
		c-1.505,1.776-2.819,3.675-4.608,5.252c-1.789,1.578-3.114,3.674-4.714,5.48c-0.858,0.97-1.858,1.813-2.809,2.698
		c-0.202,0.188-0.481,0.289-0.697,0.464c-1.168,0.947-2.356,0.731-3.014-0.661c-0.195-0.413-0.261-1.229-0.015-1.453
		c1.526-1.393,0.377-2.849,0.158-4.231c-0.146-0.921-0.606-1.815-1.041-2.662c-0.612-1.193-1.251-2.388-2.021-3.48
		c-1.462-2.075-3.011-4.091-4.557-6.105c-0.407-0.529-0.94-0.962-1.414-1.44c-1.388-1.399-3.811-1.417-5.246,0.098
		c2.335,0.728,2.444,2.912,3.05,4.915c-0.552-0.356-1.166-0.647-1.644-1.085c-0.822-0.751-1.678-0.835-2.759-0.673
		c-2.28,0.341-4.586,0.522-6.888,0.703c-0.43,0.033-0.885-0.242-1.407-0.397c-0.664,0.688-1.489,0.589-2.436,0.313
		c-0.62-0.181-1.351,0.062-2.01-0.034c-1.194-0.174-2.469-0.251-3.535-0.744c-1.802-0.834-3.507-1.503-5.462-0.557
		c-0.208,0.101-0.573-0.124-0.92-0.211c-0.645,0.786-2.137,1.152-3.041,0.823c-2.507,2.836-4.882,5.656-7.417,8.328
		c-1.129,1.19-2.496,2.142-4.424,1.603c-1.158-0.323-2.416-0.286-3.771-0.426c-0.513,1.821,0.426,3.426,1.376,5.353
		c0.549-0.6,0.999-1.014,1.355-1.497c0.667-0.905,1.415-1.124,2.156-0.287c1.178,1.33,2.671,0.907,4,0.781
		c0.64-0.061,1.196-1.05,1.779-1.628c0.378-0.375,0.738-0.769,1.229-1.282c0.392,1.291-0.147,2.106-0.708,2.84
		c-1.329,1.736-2.701,3.441-4.118,5.106c-0.542,0.638-0.696,1.236-0.598,2.069c0.132,1.121,0.033,2.27,0.033,3.453
		c0.577-0.121,0.934-0.32,1.142-0.219c1.892,0.928,3.393,0.134,4.806-1.036c1.008-0.835,1.21-0.816,1.878,0.331
		c0.769,1.319,1.858,1.463,3.148,0.637c0.995-0.637,2.13-1.061,3.224-1.532c0.206-0.089,0.629-0.045,0.738,0.1
		c0.16,0.211,0.246,0.616,0.15,0.853c-0.157,0.388-0.485,0.706-0.735,1.046c1.201,1.668,2.009,1.759,3.704,0.717
		c0.808-0.496,1.768-0.668,2.69,0.013c0.277,0.204,0.875,0.347,1.1,0.191c2.218-1.54,4.485-3.034,6.547-4.77
		c2.141-1.803,3.768-4.069,4.963-6.639c0.276-0.592,0.835-1.125,1.39-1.499c1.104-0.744,2.022-1.604,2.213-2.964
		c0.13-0.927,0.478-1.356,1.425-1.731c1.086-0.43,1.958-1.401,3.178-2.332c0.692,0.963,1.737,2.112,2.425,3.445
		c0.961,1.861,1.671,3.854,2.451,5.806c0.129,0.324,0.066,0.724,0.092,1.089c-0.359-0.054-0.819,0.018-1.061-0.179
		c-1.97-1.601-3.898-3.253-5.843-4.886c-0.345-0.289-0.707-0.558-0.801-0.632c-1.33,1.572-2.557,2.979-3.728,4.432
		c-0.319,0.396-0.473,0.926-0.862,1.72c1.191,0,2.053,0.08,2.896-0.015c2.663-0.3,4.48,0.889,5.834,3.076
		c1.615,2.61-0.027,6.32-3.071,6.513c-3.294,0.208-6.607,0.127-9.912,0.149c-0.388,0.003-0.776-0.137-1.156-0.209
		c-0.683,2.172-1.323,4.332-2.04,6.466c-1.695,5.051-2.707,10.252-3.502,15.504c-0.089,0.591-0.119,1.244-0.402,1.739
		c-0.374,0.652-0.949,1.616-1.479,1.644c-0.669,0.034-1.644-0.578-2.024-1.196c-1.349-2.194-3.467-3.463-5.505-4.783
		c-0.955-0.618-2.244-0.755-3.402-1.021c-1.81-0.416-3.635-0.771-5.458-1.123c-0.906-0.176-1.56-1.594-0.979-2.384
		c2.29-3.11,3.205-6.711,3.839-10.425c0.125-0.735,0.324-1.458,0.439-1.968c-1.099-0.843-2.101-1.512-2.978-2.318
		c-0.559-0.514-0.899-0.554-1.504-0.08c-1.15,0.901-2.388,1.517-3.98,1.16c-1.812-0.406-2.979-1.54-3.112-3.41
		c-0.042-0.585-0.099-1.034-0.814-1.049c-0.114-0.002-0.282-0.035-0.332-0.114c-1.074-1.674-2.462-0.587-3.71-0.377
		c-0.445,0.075-1.107,0.479-1.188,0.839c-0.438,1.978-2.068,2.519-3.597,3.162c-1.707,0.72-3.511,1.228-5.167,2.041
		c-1.803,0.886-3.568,1.398-5.626,1.229c-2.408-0.198-4.881,0.198-7.26-0.134c-3.385-0.472-6.802-1.092-10.034-2.164
		c-3.538-1.174-7.102-2.495-10.055-4.94c-0.376-0.312-0.634-0.765-0.946-1.152c-0.696,0.995-1.355-0.206-1.812-0.533
		c-2.371-1.693-4.669-3.496-6.906-5.366c-1.109-0.927-2.164-1.983-3.005-3.153c-1.035-1.438-0.62-3.158-0.39-4.772
		c0.111-0.776,0.407-1.526,0.824-2.256c0.509,1.643-0.537,3.412,0.466,4.938c0.158,0.01,0.316,0.02,0.475,0.028
		c0.201-1.554,0.402-3.107,0.582-4.491c1.012,0.86,1.978,1.707,2.972,2.52c1.22,0.997,2.43,2.013,3.709,2.929
		c0.958,0.687,0.865,1.483-0.465,2.728c-0.269-0.177-0.543-0.356-0.904-0.593c-0.089,0.281-0.24,0.495-0.189,0.635
		c0.825,2.235,1.757,4.443,3.956,5.677c1.049,0.589,2.262,0.889,3.407,1.302c1.741,0.63,3.487,1.242,5.23,1.865
		c0.596,0.213,1.179,0.467,1.784,0.651c2.761,0.842,5.537,1.613,8.518,1.455c0-1.242,0.067-2.434-0.045-3.607
		c-0.029-0.308-0.575-0.703-0.956-0.815c-1.907-0.563-3.842-1.032-5.757-1.57c-0.339-0.095-0.63-0.359-0.943-0.546
		c0.05-0.161,0.101-0.322,0.15-0.483c2.068,0.446,4.17,0.775,6.194,1.371c1.993,0.587,4.309,0.033,6.104,1.51
		c0.022-0.062,0.107-0.304,0.111-0.313c1.737,0.072,3.349,0.218,4.957,0.189c2.809-0.05,5.642-0.007,8.417-0.368
		c3.208-0.418,2.928-0.255,2.685-3.562c-0.313-4.245-3.004-6.996-6.256-9.277c-1.187-0.832-2.583-1.362-3.815-2.14
		c-0.394-0.248-0.565-0.849-0.754-1.15c-0.456,0-0.968,0.129-1.378-0.021c-3.246-1.184-6.461-2.448-9.709-3.626
		c-1.389-0.503-2.811-0.96-4.255-1.25c-1.07-0.215-2.203-0.186-3.306-0.158c-2.128,0.051-4.254,0.19-6.382,0.256
		c-0.356,0.012-0.717-0.163-1.003-0.233c-0.544,0.229-1.12,0.508-1.721,0.718c-1.9,0.663-3.835,1.235-5.706,1.971
		c-1.284,0.505-2.485,1.223-3.948,1.96c-0.151-0.257-0.349-0.593-0.641-1.088c-0.259,0.517-0.418,0.834-0.578,1.152
		c-0.081-0.006-0.163-0.011-0.244-0.016c-0.033-0.322-0.177-0.682-0.082-0.961c0.632-1.853,1.536-3.42,3.529-4.238
		c2.082-0.854,4.023-2.044,6.084-2.955c0.791-0.35,1.739-0.451,2.619-0.467c2.143-0.037,4.288,0.025,6.431,0.083
		c0.829,0.022,1.657,0.125,2.481,0.222c1.211,0.144,2.428,0.27,3.627,0.485c2.176,0.392,4.336,0.869,6.511,1.265
		c2.237,0.406,4.332,1.229,6.35,2.222c1.422,0.698,2.651,1.859,4.12,2.379c2.86,1.012,4.152,3.666,6.263,5.441
		c0.779,0.655,1.636,1.219,2.522,1.871c0.186-0.233,0.37-0.464,0.605-0.759c0.163,0.249,0.436,0.511,0.385,0.617
		c-0.133,0.273-0.408,0.479-0.649,0.736c0.228,0.678,0.585,1.225,1.209,0.825c0.184,0.602,0.332,1.164,0.528,1.708
		c0.162,0.449,0.45,0.86,0.563,1.318c0.425,1.714,0.802,3.439,1.367,5.154c0.812-1.239,0.513-2.584,0.484-3.891
		c-0.033-1.469-0.181-2.94-0.125-4.404c0.069-1.809,0.611-2.152,2.389-2.011c1.356,0.107,2.819,0.391,4.067,0.024
		c2.315-0.681,3.97-2.266,5.269-4.432c0.972-1.62,2.16-3.245,3.996-4.23c2.284-1.226,4.705-2.135,7.229-2.216
		c1.931-0.062,2.491-0.88,2.776-2.482c0.267-1.498,1.524-1.894,2.796-2.104c-0.011-0.187,0.01-0.315-0.023-0.33
		c-1.421-0.664-1.666-1.787-1.51-3.253c0.15-1.41,0.676-2.37,1.973-2.997c1.077-0.521,1.49-2.119,1.567-3.26
		c0.084-1.237,0.507-2.525,1.087-3.631c0.417-0.796,0.675-1.051-0.388-1.377c-1.589-0.486-2.071-2.938-0.916-4.344
		c0.404-0.491,0.822-1.012,1.34-1.36c1.541-1.036,1.868-2.442,1.581-4.177c-0.54-3.266-1.074-6.534-1.467-9.818
		c-0.183-1.53-0.031-3.099-0.031-4.845c-0.468,0.086-0.818,0.079-1.097,0.216c-1.12,0.55-1.758,0.207-1.68-1.049
		c0.086-1.39,0.315-2.771,0.472-4.157c0.026-0.228,0.004-0.461,0.004-1.054c-0.978,0.501-1.736,0.926-2.525,1.285
		c-0.665,0.302-1.363,0.528-2.047,0.788c-0.106-0.156-0.212-0.312-0.318-0.468c0.879-1.226,1.759-2.451,2.62-3.652
		c0.908-0.248,1.806-0.493,3.003-0.819c0.655-0.72,1.787-1.582,2.371-2.724c0.507-0.994,0.396-2.305,0.555-3.476
		c0.077-0.568,0.166-1.135,0.218-1.706c0.125-1.376,0.276-2.753,0.31-4.132c0.007-0.293-0.39-0.663-0.685-0.885
		c-0.701-0.527-1.486-0.946-2.167-1.495c-0.271-0.218-0.453-0.657-0.481-1.012c-0.012-0.153,0.467-0.345,1.031-0.729
		c-0.979-0.306-1.866-0.472-2.646-0.854c-0.99-0.486-1.899-1.138-2.829-1.739c-0.251-0.163-0.454-0.401-0.876-0.782
		c-0.721,1.431-1.364,2.707-2.005,3.984c-0.054,0.107-0.065,0.275-0.148,0.322c-1.856,1.034-2.689,3.383-5.202,3.671
		c-2.523,0.29-4.263-0.874-5.899-2.422c-1.479-1.399-2.725-2.976-3.363-4.977c-0.093-0.292-0.667-0.496-1.056-0.615
		c-0.597-0.183-1.228-0.258-2.041-0.417c-0.26,2.055-0.517,4.161-0.793,6.264c-0.429,3.266-0.601,6.566-2.148,9.615
		c-0.593,1.169-0.708,2.594-0.942,3.92c-0.042,0.243,0.36,0.781,0.615,0.822c1.018,0.165,1.57,0.701,1.99,1.63
		c0.244,0.54,0.588,1.391,1.636,0.871c0.217-0.108,0.778,0.477,1.227,0.773c0.503-0.239,1.205-0.375,1.601-0.797
		c1.417-1.514,3.203-2.797,3.422-5.142c0.096-1.028,0.343-2.046,0.562-3.06c0.335-1.549,0.904-2.105,2.758-2.583
		c-0.261-0.969-0.523-1.94-0.814-3.018c2.149,1.444,4.355,1.418,6.628,0.663c0.256-0.085,0.55-0.153,0.809-0.114
		c1.353,0.205,2.318-0.334,2.997-1.474c0.637-1.069,1.441-1.917,2.771-2.03c0.258-0.021,0.587-0.049,0.774,0.082
		c0.68,0.479,1.299,0.873,2.168,0.318c0.126-0.08,0.962,0.489,1.007,0.821c0.32,2.363,0.55,4.741,0.717,7.12
		c0.02,0.288-0.506,0.614-0.898,1.057c-0.038,0.623-0.091,1.48-0.144,2.338c-0.088-0.008-0.177-0.016-0.266-0.023
		c-0.481-1.528-0.869-3.094-1.474-4.571c-0.474-1.155-1.1-2.293-1.873-3.269c-0.895-1.131-2.016-0.833-3.172-0.084
		c-1.853,1.199-3.919,2.064-5.887,3.087c-0.642,0.333-1.243,0.746-1.889,1.069c-0.749,0.374-1.328,0.886-1.947,1.466
		c-1.111,1.042-0.626,1.899-0.223,2.884c0.352,0.86,0.727,1.71,1.186,2.787c0.254-0.208,0.735-0.449,0.989-0.839
		c0.729-1.117,1.478-2.102,2.837-2.589c0.683-0.245,1.265-0.92,1.76-1.511c1.455-1.734,2.826-3.539,4.267-5.285
		c0.688-0.834,1.454-0.722,1.797,0.305c0.288,0.86,0.405,1.788,0.497,2.696c0.029,0.287-0.268,0.608-0.415,0.913
		c-0.282-0.158-0.649-0.248-0.831-0.483c-1.253-1.625-1.202-1.607-2.372,0.036c-1.52,2.135-3.074,4.248-4.689,6.311
		c-0.448,0.572-1.236,0.87-1.732,1.418c-0.337,0.373-0.437,0.962-0.643,1.454c0.133,0.095,0.267,0.189,0.399,0.285
		c1.377-1,2.754-2.001,4.296-3.121c0,0.464,0.131,1.038-0.03,1.513c-0.247,0.725-0.493,1.32,0.296,1.88
		c0.19,0.135,0.172,0.564,0.306,1.068c-0.625-0.105-1.212-0.029-1.489-0.286c-0.572-0.532-1.133-0.544-1.746-0.281
		c-1.337,0.575-2.347-0.338-3.477-0.707c-0.637-0.208-1.264-0.447-1.902-0.652c-0.632-0.203-1.272-0.38-2.027-0.604
		c-0.261,0.364-0.508,0.894-0.913,1.24c-1.69,1.445-3.63,2.255-5.89,1.836c-2.132-0.396-3.895-1.451-4.438-3.665
		c-0.293-1.193-0.125-2.518-0.047-3.776c0.047-0.747,0.414-1.473,0.465-2.22c0.03-0.431-0.282-0.884-0.439-1.328
		c-0.312,0.318-0.679,0.6-0.922,0.965c-0.215,0.322-0.294,0.736-0.476,1.222c-0.211-0.136-0.377-0.243-0.732-0.472
		c-0.254,0.74-0.645,1.418-0.702,2.124c-0.215,2.667-0.22,5.301,0.384,7.976c0.61,2.704,1.995,5.021,3.023,7.514
		c0.467,1.133,1.075,2.217,0.639,3.549c-1.978-5.592-5.668-10.592-5.608-16.891c-1.108,6.159,1.113,11.577,3.668,16.952
		c-1.977-2.286-3.46-4.849-4.275-7.654c-0.822-2.832-1.158-5.806-1.771-9.052c-0.192,0.721-0.381,1.153-0.413,1.597
		c-0.231,3.258,0.062,6.384,1.498,9.44c1.313,2.794,3.579,4.977,4.691,7.855c0.373,0.965,0.631,1.975,0.942,2.963
		c-0.12,0.039-0.24,0.077-0.36,0.115c-0.521-1.002-0.978-2.043-1.574-2.998c-1.661-2.657-3.5-5.209-5.041-7.933
		c-1.494-2.642-1.616-5.63-1.484-8.606c0.059-1.331,0.171-2.659,0.07-4.005c-0.623,2.71-1.277,5.462-0.82,8.23
		c0.455,2.752,1.318,5.437,2.036,8.287c-0.322-0.46-0.661-0.866-0.914-1.319c-1.881-3.372-2.403-6.991-1.834-10.773
		c0.183-1.213,0.571-2.395,0.794-3.604c0.115-0.623,0.075-1.274,0.104-1.913c-0.099-0.013-0.197-0.026-0.296-0.04
		c-0.745,1.509-1.49,3.018-2.235,4.526c-0.034-0.015-0.069-0.03-0.104-0.045c0.702-2.759,1.403-5.518,2.104-8.277
		c-0.102-0.023-0.204-0.047-0.306-0.071c-1.248,2.761-2.496,5.523-3.744,8.284c-0.174-0.055-0.349-0.111-0.523-0.166
		c0.157-0.599,0.208-1.252,0.488-1.787c1.419-2.717,2.256-5.617,2.767-8.614c0.135-0.794,0.021-1.63,0.021-2.391
		c-0.564,1.773-1.033,3.632-1.75,5.391c-0.75,1.838-1.695,3.602-2.638,5.354c-0.493,0.914-1.165,1.731-2.01,2.613
		c0.154-0.918,0.309-1.837,0.476-2.835c0.183,0.058,0.38,0.121,0.584,0.186c0.596-1.218,1.26-2.328,0.814-3.84
		c-0.208-0.708,0.311-1.63,0.292-2.559c-1.409,1.833-2.129,4.136-4.199,5.462c4.418-5.935,4.353-13.012,5.393-19.805
		c-0.129-0.034-0.258-0.067-0.387-0.101c-0.274,1.171-0.679,2.33-0.797,3.517c-0.416,4.185-1.742,7.995-4.249,11.398
		c-0.631,0.857-1,1.904-1.594,2.793c-0.342,0.511-0.846,0.962-1.374,1.28c-0.257,0.155-0.92,0.572-1.077-0.344
		c-0.025-0.148-0.781-0.171-1.199-0.252c-0.032,0.138-0.063,0.276-0.095,0.414c0.251,0.284,0.501,0.568,0.75,0.849
		c-0.954,2.114-4.587,1.991-6.924,1.198c-1.974-0.67-3.884-3.85-3.739-5.516c1.229,2.314,2.862,4.145,5.936,4.629
		c0.608-0.161,1.697-0.449,2.787-0.737c0.03-0.152,0.059-0.305,0.089-0.457c-2.24,0.263-3.947-0.776-5.457-2.067
		c-1.573-1.345-2.317-3.213-2.618-5.279c1.152,1.32,1.546,3.22,3.479,3.899c1.642,0.578,3.009,1.97,5.057,1.522
		c-3.16-0.635-4.798-3.161-6.415-5.405c-1.681-2.333-1.898-5.283-1.862-8.13c0.146-0.032,0.292-0.064,0.438-0.096
		c0.078,0.34,0.217,0.679,0.224,1.02c0.091,4.869,3.229,7.569,6.982,9.825c0.45,0.27,0.836,0.391,1.331-0.187
		c0.381-0.445,1.146-0.666,1.776-0.772c1.208-0.205,1.629-1.074,2.119-2.016c1.157-2.227,1.299-4.671,1.646-7.073
		c0.327-2.263,0.836-4.454,2.137-6.396c0.24-0.358,0.314-0.829,0.465-1.248c-0.201-0.166-0.403-0.333-0.604-0.499
		c-0.177,0.386-0.299,0.811-0.539,1.153c-1.337,1.91-2.118,3.994-2.243,6.342c-0.048,0.917-0.092,1.931-1.221,2.576
		c0.312-3.689,0.664-7.238,2.346-10.432c0.518-0.981,1.658-1.631,2.499-2.447c0.313-0.304,0.586-0.649,1.073-1.194
		c-1.006-0.176-1.694-0.331-2.391-0.411c-1.095-0.125-1.884-0.847-1.823-1.945c0.053-0.946,0.183-1.935,0.521-2.811
		c0.935-2.416,1.953-4.803,3.022-7.163c0.926-2.044,0.692-3.031-1-4.554c-0.501-0.45-0.955-1.294-0.926-1.934
		c0.156-3.466,0.468-6.924,0.733-10.385c0.064-0.833,0.082-1.681,0.251-2.495c0.846-4.062,2.565-7.793,4.583-11.375
		c0.943-1.673,2.232-3.149,3.308-4.752c0.444-0.662,0.858-0.759,1.44-0.164c0.519-0.625,0.973-1.223,1.481-1.771
		c0.518-0.56,1.061-0.741,1.525,0.094c0.112,0.203,0.272,0.551,0.401,0.546c1.556-0.049,1.201,1.129,1.336,2.002
		c0.052,0.339,0.149,0.672,0.23,1.026c0.227-0.031,0.353-0.016,0.446-0.065c1.78-0.933,1.885-1.375,0.204-2.569
		c-1.161-0.826-1.422-1.488-0.404-2.535c0.095-0.098,0.006-0.375,0.002-0.568L60.358,31.321z M112.067,136.865
		c-0.077,0.949-0.023,1.762-0.229,2.503c-0.441,1.594-0.406,3.127,0.045,4.716c0.197,0.693,0.224,1.515,0.061,2.218
		c-1.066,4.615-2.216,9.212-3.314,13.82c-0.349,1.466-0.216,1.581,1.207,1.394c0.226-0.03,0.526-0.039,0.688,0.081
		c1.587,1.187,3.382,2.2,4.664,3.661c1.497,1.705,2.529,3.815,3.792,5.73c0.162,0.245,0.501,0.372,0.759,0.554
		c0.106-0.062,0.211-0.123,0.317-0.185c-0.074-0.382-0.017-0.898-0.246-1.122c-0.942-0.92-0.258-1.323,0.478-1.667
		c0.965-0.451,2.028-0.717,2.943-1.246c3.539-2.051,7.076-4.11,10.534-6.293c2.299-1.451,4.478-3.097,6.682-4.696
		c1.058-0.768,2.048-1.629,3.068-2.447c-0.07-0.115-0.142-0.23-0.213-0.346c-0.412,0.165-0.854,0.28-1.232,0.504
		c-1.5,0.886-2.993,1.785-4.463,2.72c-1.158,0.736-2.272,1.541-3.418,2.298c-0.394,0.26-0.816,0.477-1.232,0.701
		c-0.991,0.535-2.087,0.937-2.96,1.621c-2.104,1.649-4.553,2.521-7.032,3.395c9.23-5.375,17.75-11.783,26.55-17.891
		c0.146,0.229,0.322,0.506,0.709,1.113c0.084-1.109,0.141-1.854,0.193-2.551c-2.017,1.279-4.054,2.57-6.091,3.862
		c-0.152-0.157-0.306-0.315-0.458-0.473c0.372-0.483,0.661-1.081,1.135-1.423c0.637-0.459,1.42-0.713,2.133-1.07
		c1.117-0.561,1.475-1.68,0.803-2.77c0.012,1.165-0.396,2-1.449,2.405c-2.738,1.055-5.461,2.15-8.221,3.145
		c-2.198,0.792-4.426,1.518-6.669,2.17c-3.779,1.099-7.567,2.147-11.546,2.334c-0.977,0.046-2.38,0.335-2.803,1.006
		c-1.052,1.672-2.444,2.898-3.93,4.084c-0.503,0.401-0.886,1.387-1.691,0.635c-0.125-0.116,0.553-1.096,0.867-1.671
		c0.035-0.063,0.135-0.088,0.189-0.145c0.996-1.052,2.026-2.074,2.972-3.169c0.644-0.745,1.005-1.943,1.788-2.31
		c1.13-0.53,2.529-0.475,3.809-0.699c0.744-0.13,1.847-0.082,2.136-0.533c0.548-0.854,1.288-1.059,2.082-1.361
		c1.145-0.436,1.465-1.086,1.146-2.219c-0.513-1.827,0.186-3.002,2.057-3.074c1.268-0.049,2.385-0.261,3.426-0.999
		c0.221-0.156,0.652-0.017,0.986-0.014c-0.042,0.321,0.036,0.79-0.146,0.938c-0.942,0.764-1.9,1.537-2.956,2.117
		c-0.586,0.322-1.061,0.484-0.906,1.27c0.061,0.304-0.009,0.636-0.033,0.954c-0.09,1.163,0.185,1.403,1.27,0.975
		c1.626-0.644,3.248-1.305,4.837-2.035c1.907-0.877,3.761-1.871,5.669-2.748c2.01-0.924,4.058-1.766,6.083-2.655
		c0.172-0.075,0.298-0.249,0.454-0.365c1.115-0.826,2.211-1.683,3.355-2.467c1.967-1.346,3.966-2.646,5.95-3.967
		c-0.061-0.122-0.121-0.243-0.182-0.365c-0.479,0.12-0.986,0.175-1.431,0.373c-1.765,0.785-3.458,1.771-5.279,2.38
		c-1.511,0.504-3.165,0.803-4.753,0.792c-1.811-0.013-3.623-0.441-5.423-0.756c-0.313-0.055-0.673-0.395-0.808-0.693
		c-0.064-0.143,0.308-0.665,0.559-0.732c1.21-0.325,2.447-0.548,3.672-0.82c0.345-0.076,0.681-0.198,1.021-0.299
		c-0.033-0.106-0.066-0.213-0.1-0.319c-0.224,0.029-0.446,0.08-0.67,0.084c-1.143,0.021-2.357,0.278-3.406-0.028
		c-0.964-0.281-1.656-0.299-2.416,0.296c-0.165,0.129-0.418,0.144-0.684,0.229c-0.269-1.01,0.219-1.376,1.025-1.567
		c0.901-0.214,1.792-0.472,2.688-0.711c0.026-0.125,0.052-0.249,0.078-0.373c-0.395-0.267-0.761-0.592-1.186-0.789
		c-2.232-1.034-2.53-1.691-1.718-4.002c-0.355-0.172-0.706-0.364-1.074-0.516c-1.147-0.476-1.703-1.378-1.564-2.559
		c0.239-2.046-0.57-3.737-1.622-5.357c-0.206-0.318-0.66-0.668-1.002-0.671c-1.342-0.012-2.695,0.247-4.025,0.149
		c-1.988-0.146-3.981-0.4-5.93-0.812c-1.505-0.318-2.944-0.947-4.598-1.5c-0.306,1.437-0.539,2.804-0.894,4.139
		c-0.87,3.268-1.827,6.512-2.668,9.787c-0.127,0.492,0.105,1.124,0.301,1.643c0.236,0.625,0.727,1.166,0.902,1.801
		c0.462,1.671,0.575,1.792,2.269,1.97c0.897,0.094,1.783,0.295,2.674,0.448c-1.829,1.455-3.719,1.153-5.597,0.577
		C113.868,136.68,112.96,136.162,112.067,136.865z M58.761,105.731c-0.064,0.096-0.129,0.193-0.194,0.29
		c1.888,0.245,3.31-0.595,4.508-1.986c1.533-1.779,2.359-3.929,2.72-6.163c0.266-1.649,0.143-3.423-0.146-5.082
		c-0.246-1.41-1.431-2.322-2.812-2.676c-1.113-0.285-2.458,0.69-3.166,2.113c-0.576,1.157-1.823,2.024-1.565,3.554
		c0.017,0.1-0.053,0.288-0.13,0.32c-1.2,0.499-0.802,1.559-0.904,2.458c-0.084,0.745-0.135,1.534-0.422,2.208
		c-0.635,1.491-0.435,2.857,0.788,4.113c0.06-0.327,0.119-0.649,0.178-0.973c0.097-0.022,0.193-0.045,0.29-0.067
		C58.191,104.47,58.476,105.1,58.761,105.731z M104.168,119.405c0.151,0.055,0.301,0.109,0.452,0.164
		c0.132-0.226,0.243-0.467,0.399-0.674c0.257-0.339,0.543-0.657,0.817-0.984c0.103,0.46,0.302,0.925,0.287,1.381
		c-0.025,0.748-0.19,1.49-0.296,2.235c0.136,0.023,0.272,0.046,0.409,0.07c0.188-0.667,0.377-1.334,0.565-2.001
		c0.064,0.007,0.129,0.015,0.194,0.022c0.545,4.191,1.091,8.383,1.617,12.427c0.359-0.069,0.736-0.142,1.38-0.267
		c-2.404-5.198-2.465-10.446-0.427-15.815c0.48,0.252,0.722,0.379,0.986,0.518c0.445-1.83,1.25-3.531,0.348-5.339
		c-0.218,0.186-0.437,0.372-0.655,0.558c-0.093-0.035-0.187-0.07-0.28-0.106c0.674-3.382,2.174-6.635,1.881-10.179
		c-0.696,1.883-1.155,3.824-1.781,5.709c-0.623,1.877-0.557,4.03-2.162,5.581c-0.229-0.292-0.455-0.578-0.783-0.996
		c-0.282,0.739-0.505,1.323-0.728,1.907c-1.542,0.051-1.618,0.229-0.986,1.64c0.141,0.314-0.051,0.817-0.178,1.204
		C104.899,117.451,104.523,118.425,104.168,119.405z M84.727,47.425c0.008,0.157,0.015,0.313,0.023,0.47
		c0.918,0.146,1.847,0.242,2.75,0.451c0.92,0.213,2.002,0.183,2.579,1.392c-0.37,0.163-0.686,0.429-0.988,0.415
		c-2.104-0.097-4.279,0.039-6.282-0.479c-1.644-0.425-2.839-0.203-4.162,0.666c-1.991,1.309-2.04,1.742-0.033,3.095
		c0.265,0.179,0.773,0.202,1.08,0.079c1.135-0.458,2.189-1.176,3.356-1.484c1.944-0.514,3.939-0.889,5.936-1.126
		c1.426-0.17,2.906,0.106,4.329-0.075c0.592-0.075,1.324-0.716,1.59-1.288c0.361-0.774-0.284-1.413-1.032-1.588
		c-1.953-0.461-3.917-0.957-5.906-1.151C86.917,46.7,85.809,47.198,84.727,47.425z M20.366,188.584
		c-0.042,0.109-0.083,0.219-0.124,0.328c0.574,0.457,1.086,1.055,1.735,1.347c1.65,0.742,3.347,1.389,5.052,1.998
		c2.244,0.802,4.467,1.77,6.785,2.233c3.05,0.611,6.177,0.956,9.286,1.119c1.963,0.102,3.96-0.29,5.929-0.563
		c0.611-0.085,1.176-0.507,1.762-0.775c-1.078-0.34-2.075-0.395-3.074-0.435c-1.986-0.079-3.973-0.153-5.959-0.223
		c-0.87-0.03-1.762,0.072-2.607-0.086c-2.301-0.432-4.604-0.888-6.865-1.487c-2.467-0.654-5.125-0.695-7.343-2.192
		c-0.116-0.078-0.311-0.031-0.46-0.071c-0.9-0.241-1.799-0.484-2.695-0.74C21.309,188.899,20.839,188.735,20.366,188.584z
		 M56.972,49.191c1.085-0.48,2.084-0.747,2.866-1.312c1.067-0.772,1.947-1.8,2.954-2.662c0.408-0.35,0.941-0.553,1.417-0.823
		c0.12,0.043,0.24,0.087,0.36,0.13c-0.226-1.522-0.376-3.061-0.7-4.562c-0.32-1.483-0.599-1.546-2.292-1.403
		c-1.198,0.101-1.5,0.763-1.528,1.834c-0.027,1.032-0.214,2.06-0.346,3.222c-0.464-0.543-0.744-0.87-1.023-1.198
		c-0.259,0.228-0.644,0.404-0.756,0.689C57.176,44.995,56.665,46.934,56.972,49.191z M48.147,84.656
		c-1.046,0.396-1.939,2.006-1.496,2.327c0.671,0.485,0.297,0.844,0.034,1.271c-0.33,0.537-0.751,1.04-0.971,1.619
		c-0.588,1.544-1.561,3.132-1.527,4.685c0.069,3.242-0.708,6.232-1.708,9.222c-0.345,1.033-1.022,1.681-2.224,1.616
		c-0.43-0.023-0.878,0.068-1.297,0.184c-0.183,0.05-0.314,0.289-0.469,0.443c0.165,0.142,0.339,0.416,0.494,0.405
		c1.391-0.093,1.652,0.412,0.754,1.509c1.344,0.27,2.207-0.186,2.705-1.33c0.492-1.131,1.009-2.252,1.456-3.401
		c0.37-0.952,0.748-1.917,0.956-2.912c0.619-2.96,1.122-5.944,1.734-8.906C47.037,89.211,47.587,87.055,48.147,84.656z
		 M50.787,56.783c-0.014,0-0.027,0-0.042,0c0,0.318-0.003,0.636,0,0.955c0.015,1.261,0.334,1.552,1.572,1.348
		c0.781-0.129,1.546-0.427,2.328-0.466c0.771-0.039,0.953-0.38,0.919-1.04c-0.067-1.309-0.125-2.619-0.175-3.928
		c-0.025-0.665-0.288-0.828-0.92-0.572c-0.657,0.265-1.344,0.572-2.034,0.615c-1.275,0.078-1.589,0.843-1.645,1.894
		C50.77,55.986,50.787,56.385,50.787,56.783z M50.068,77.949c0.256-1.26-0.012-1.982-1.51-1.699
		c-0.254,0.048-0.577-0.198-0.812-0.126c-0.476,0.145-1.038,0.309-1.339,0.658c-0.485,0.562-0.793,1.277-1.166,1.933
		c-0.915,1.609-0.844,1.857,0.746,2.694c1.877,0.988,3.408,0.306,3.794-1.698C49.894,79.127,49.974,78.537,50.068,77.949z
		 M64.351,61.328c-0.212-0.126-0.425-0.252-0.638-0.378c-0.046,0.192-0.077,0.389-0.14,0.574c-0.559,1.651-1.642,3.058-3.081,3.812
		c-1.867,0.979-2.54,2.272-2.271,4.227c0.075,0.548,0.219,1.087,0.324,1.593c0.954-0.805,1.719-1.439,2.471-2.088
		c0.566-0.489,1.41-0.895,1.621-1.513C63.333,65.522,63.798,63.41,64.351,61.328z M59.909,50.214
		c-0.836,0.498-1.507,0.78-2.024,1.238c-0.472,0.418-1.021,0.989-1.104,1.556c-0.189,1.292-0.146,2.623-0.12,3.937
		c0.005,0.261,0.323,0.705,0.549,0.741c1.149,0.185,3.17-1.753,3.115-2.917c-0.055-1.155-0.1-2.311-0.181-3.465
		C60.12,50.945,59.993,50.591,59.909,50.214z M64.595,46.308c-0.184-0.072-0.367-0.146-0.551-0.218
		c-0.924,1.13-2.275,2.133-2.66,3.423c-0.447,1.499-0.031,3.248,0.882,4.97c0.76-0.664,1.667-1.083,1.927-1.754
		C65,50.651,64.477,48.456,64.595,46.308z M43.018,188.06c-0.582,0.3-1.524,0.482-1.669,0.926c-0.312,0.954-0.343,2.062-0.196,3.064
		c0.04,0.269,1.132,0.388,1.744,0.564c0.11,0.032,0.238,0.001,0.356,0.014c1.693,0.174,1.747,0.138,2.217-1.496
		C46.311,188.208,46.26,188.146,43.018,188.06z M105.274,111.663c0.142,0.003,0.284,0.006,0.426,0.009
		c2.337-4.163-0.58-14.107-4.352-14.646c0.725,1.209,1.639,2.313,2.091,3.581c0.728,2.039,1.283,4.164,1.657,6.296
		C105.369,108.452,105.23,110.074,105.274,111.663z M55.876,62.96c-0.061-0.017-0.122-0.033-0.184-0.05
		c0-0.319-0.005-0.637,0.001-0.956c0.018-0.847-0.075-1.392-1.216-1.002c-0.873,0.298-1.863,0.24-2.789,0.411
		c-0.224,0.042-0.582,0.385-0.562,0.553c0.121,1.023,0.3,2.043,0.539,3.046c0.06,0.251,0.445,0.642,0.622,0.613
		c1.008-0.166,2.09-0.271,2.956-0.747C55.667,64.593,55.678,63.606,55.876,62.96z M52.369,70.614
		c0.029,0.517,0.042,1.035,0.091,1.549c0.06,0.617,0.384,0.991,1.035,0.81c2.267-0.633,3.196-1.084,2.915-3.466
		c-0.028-0.236,0.003-0.482-0.045-0.713c-0.086-0.413-0.211-0.817-0.32-1.225c-0.382,0.135-0.767,0.265-1.146,0.407
		c-0.219,0.082-0.422,0.228-0.646,0.271C52.245,68.637,52.244,68.632,52.369,70.614z M51.908,51.935
		c1.046-1.158,2.945-0.642,3.484-2.182c0.447-1.275,0.461-2.668-0.029-4.421c-1.208,1.005-2.463,1.637-3.052,2.655
		C51.72,49.008,51.28,50.374,51.908,51.935z M66.451,49.703c2.894-2.014,3.866-7.032,1.962-7.964
		C65.544,43.837,66.729,46.748,66.451,49.703z M120.271,108.165c0.105-0.051,0.21-0.103,0.316-0.153
		c-0.219-3.434-0.613-6.868-0.599-10.301c0.01-2.512,0.529-5.026,0.879-7.53c0.116-0.828,0.728-1.627-0.192-2.767
		c-0.215,0.67-0.427,1.116-0.49,1.582c-0.079,0.582,0.026,1.188-0.057,1.769c-0.274,1.922-0.755,3.829-0.865,5.759
		c-0.156,2.743-0.156,5.506-0.011,8.25C119.313,105.918,119.916,107.035,120.271,108.165z M65.076,60.885
		c2.042-0.817,4.075-7.451,3.053-9.604C65.107,53.849,66.06,57.611,65.076,60.885z M70.082,53.978
		c0.115,0.063,0.23,0.126,0.345,0.189c0.384-0.255,0.752-0.539,1.156-0.759c1.917-1.048,2.132-1.526,1.625-3.574
		c-0.124-0.502-0.142-1.03-0.255-1.535c-0.088-0.393-0.249-0.77-0.433-1.319C70.375,49.073,70.929,51.743,70.082,53.978z
		 M48.736,68.19c-0.322,1.169-0.689,2.375-0.976,3.601c-0.151,0.647-0.159,1.328-0.232,1.993c0.522,0.043,1.046,0.066,1.564,0.134
		c0.895,0.117,1.351-0.294,1.404-1.158c0.039-0.638,0.012-1.279,0.025-1.919C50.546,69.572,50.828,68.152,48.736,68.19z
		 M61.001,60.456c-0.041-2.059-0.139-2.114-1.764-1.191c-0.104,0.059-0.203,0.144-0.314,0.166c-1.964,0.384-1.631,1.136-1.522,2.626
		c0.042,0.561,0.347,1.103,0.532,1.653c0.447-0.257,0.895-0.515,1.342-0.771c0.138-0.079,0.272-0.167,0.416-0.233
		C60.738,62.224,61.127,61.392,61.001,60.456z M75.132,50.263c1.001-0.819,1.817-1.431,2.553-2.128
		c0.192-0.183,0.298-0.783,0.161-0.932c-0.766-0.834-1.26-2.045-2.657-2.18C74.038,46.682,74.707,48.306,75.132,50.263z
		 M47.675,53.943c-0.603,0.663-1.192,4.017-0.719,4.795c0.203,0.333,0.735,0.687,1.078,0.651c0.328-0.034,0.778-0.518,0.868-0.88
		c0.188-0.761,0.128-1.58,0.254-2.361C49.353,54.932,49.247,53.969,47.675,53.943z M73.911,43.209
		c0.47-0.326,0.901-0.746,1.418-0.958c0.874-0.358,0.842-0.98,0.417-1.518c-0.771-0.975-1.678-1.84-2.539-2.763
		C72.128,39.262,72.449,41.331,73.911,43.209z M46.997,60.729c0.172,1.451,0.283,2.793,0.516,4.113
		c0.068,0.388,0.428,0.783,0.757,1.047c0.234,0.188,0.671,0.276,0.958,0.196c0.208-0.059,0.483-0.497,0.444-0.714
		C49.352,63.608,49.73,61.454,46.997,60.729z M55.055,109.196c0.101-0.853,0.167-1.414,0.233-1.976
		c-0.862-0.06-0.541-0.703-0.505-1.127c0.192-2.296,0.443-4.587,0.623-6.884c0.032-0.399-0.179-0.818-0.277-1.229
		c-0.11,0.02-0.22,0.04-0.33,0.059c-0.272,2.646-0.475,5.301-0.851,7.932C53.78,107.149,54.064,108.049,55.055,109.196z
		 M47.546,51.392c0.195,0.265,0.543,0.935,0.684,0.894c0.476-0.14,1.122-0.445,1.26-0.842c0.375-1.077,0.601-2.226,0.708-3.363
		c0.03-0.315-0.506-0.792-0.889-0.988c-0.158-0.081-0.784,0.321-0.871,0.604C48.09,48.828,47.869,50,47.546,51.392z M62.279,60.582
		c2.372-1.39,2.866-4.396,0.961-5.658C61.748,56.609,62.265,58.607,62.279,60.582z M48.285,106.94
		c1.56-4.421,2.349-10.363,1.604-12.183c-0.393,3.095-0.77,6.069-1.147,9.044c-0.114-0.064-0.227-0.128-0.341-0.192
		c-0.348,0.347-0.695,0.694-1.189,1.188C48.286,105.001,48.286,105.001,48.285,106.94z M54.089,42.651
		c0.133,0.06,0.266,0.12,0.399,0.18c1.454-0.483,3.006-4.878,2.11-6.653C55.711,38.467,54.9,40.559,54.089,42.651z M82.157,45.428
		c-1.183-0.643-2.284-1.254-3.4-1.836c-0.158-0.083-0.407-0.081-0.582-0.022c-0.282,0.094-0.731,0.236-0.759,0.414
		c-0.045,0.285,0.107,0.729,0.332,0.904c0.528,0.41,1.174,0.663,1.726,1.045C80.485,46.631,81.291,46.356,82.157,45.428z
		 M70.721,39.636c-1.017,2.184,0.197,3.949,0.021,5.954C72.687,44.474,72.655,43.568,70.721,39.636z M94.776,77.201
		c-0.214,1.815,3.543,7.674,5.252,8.088C98.276,82.59,96.489,79.838,94.776,77.201z M66.735,40.09
		c1.003-0.646,1.974-1.129,1.496-2.296c-0.258-0.629-0.855-1.132-1.35-1.644c-0.124-0.128-0.515-0.168-0.653-0.069
		c-0.191,0.138-0.4,0.477-0.356,0.677C66.105,37.832,66.415,38.889,66.735,40.09z M52.634,39.886
		c-0.093-0.024-0.186-0.048-0.279-0.072c-0.724,1.237-1.485,2.456-2.145,3.727c-0.145,0.28,0.07,0.747,0.119,1.127
		c0.347-0.167,0.88-0.247,1.008-0.518c0.525-1.106,0.948-2.264,1.358-3.42C52.782,40.487,52.66,40.17,52.634,39.886z M103.51,85.447
		c0.107-0.094,0.216-0.188,0.324-0.281c-0.39-2.535-2.943-3.132-4.244-4.852c-0.112,0.099-0.224,0.197-0.335,0.295
		C100.673,82.222,102.091,83.834,103.51,85.447z M126.334,168.304c-0.067-0.131-0.133-0.261-0.2-0.391
		c-1.528,0.651-3.062,1.289-4.572,1.979c-0.126,0.058-0.091,0.468-0.131,0.714c0.316,0.002,0.688,0.114,0.939-0.013
		c0.97-0.49,1.904-1.052,2.846-1.596C125.596,168.778,125.962,168.535,126.334,168.304z M52.935,87.518
		c-0.094-0.005-0.188-0.01-0.283-0.016c-0.046,0.963,0.05,1.96-0.171,2.881c-0.312,1.298,0.257,1.621,1.436,1.622
		c-0.033-0.623,0.324-1.288-0.623-1.656c-0.238-0.093-0.3-0.775-0.344-1.196C52.892,88.613,52.935,88.063,52.935,87.518z
		 M113.383,102.403c-0.596,2.067-1.136,3.945-1.678,5.823c0.125,0.03,0.25,0.061,0.374,0.09
		C112.815,106.487,113.969,104.762,113.383,102.403z M62.406,32.541c0.793,0.621,1.426,1.117,2.063,1.616
		c0.523-0.219,1.059-0.443,1.595-0.667C65.693,32.828,65.693,32.828,62.406,32.541z M108.228,107.188
		c-1,0.181-0.78,1.385-1.138,2.156c-0.099,0.212,0.212,0.692,0.444,0.95c0.123,0.136,0.482,0.058,0.734,0.076
		c0.024-0.342,0.074-0.685,0.066-1.026C108.319,108.677,108.271,108.01,108.228,107.188z M68.492,34.292
		c-0.127,0.161-0.255,0.321-0.383,0.482c0.735,0.606,1.467,1.216,2.206,1.816c0.181,0.147,0.372,0.304,0.585,0.381
		c0.101,0.037,0.387-0.116,0.382-0.162c-0.025-0.248-0.036-0.596-0.197-0.717C70.245,35.46,69.36,34.886,68.492,34.292z
		 M159.979,132.142c1.271,0.117,1.965-0.832,1.544-2.578C160.984,130.463,160.478,131.31,159.979,132.142z M139.242,125.206
		c-0.186,0.155-0.371,0.31-0.557,0.464c0.329,0.478,0.658,0.955,0.987,1.433c0.217-0.234,0.656-0.616,0.614-0.68
		C139.995,125.98,139.603,125.604,139.242,125.206z M63.207,185.641c0.154,0.002,0.308,0.004,0.461,0.006c0-1.064,0-2.129,0-3.193
		c-0.105-0.002-0.211-0.003-0.317-0.004C63.303,183.513,63.255,184.576,63.207,185.641z M98.722,77.148
		c0.033-0.003,0.067-0.006,0.1-0.009c0-0.892-0.037-1.785,0.011-2.674c0.047-0.868,0.181-1.731,0.276-2.596
		c-0.129-0.001-0.258-0.001-0.387-0.002C98.722,73.627,98.722,75.388,98.722,77.148z M58.518,37.898
		c-0.173,0.009-0.345,0.018-0.518,0.026c-0.1,0.616-0.229,1.229-0.278,1.849c-0.011,0.147,0.229,0.354,0.399,0.453
		c0.053,0.031,0.371-0.196,0.377-0.316C58.538,39.241,58.518,38.569,58.518,37.898z M101.372,148.981
		c0.121,0.104,0.242,0.207,0.363,0.311c0.536-0.698,1.073-1.396,1.609-2.094c-0.129-0.101-0.258-0.2-0.387-0.301
		C102.429,147.593,101.9,148.287,101.372,148.981z M64.505,184.649c0.158,0.015,0.315,0.029,0.473,0.044c0-0.781,0-1.564,0-2.346
		c-0.107-0.007-0.214-0.014-0.32-0.021C64.607,183.102,64.556,183.875,64.505,184.649z M78.606,56.23
		c0.045,0.122,0.091,0.243,0.137,0.365c1.023,0.248,1.466-0.676,2.069-1.275C80.077,55.623,79.341,55.927,78.606,56.23z"/>
	<path style="fill-rule:evenodd;clip-rule:evenodd;" d="M156.468,119.776c-0.297,0.516-0.593,1.032-1.027,1.79
		c0.426-0.242,0.643-0.347,0.841-0.481c0.867-0.59,1.635-1.297,2.826-1.298c0.76-0.001,1.523-0.394,1.515-1.374
		c-0.009-0.962-0.021-1.973-1.149-2.402c-0.369-0.14-0.79-0.311-1.157-0.257c-1.13,0.163-1.624-0.089-1.205-1.333
		c0.071-0.214-0.222-0.658-0.462-0.85c-0.773-0.619-1.609-1.158-2.404-1.751c-0.381-0.284-0.839-0.553-1.061-0.943
		c-0.608-1.07-1.139-2.146-2.559-2.346c-0.173-0.024-0.283-0.499-0.422-0.765c0.084-0.086,0.169-0.172,0.254-0.258
		c1.161,0.546,2.322,1.092,3.484,1.639c1.155,0.544,2.312,1.089,3.812,1.797c-1.101-1.276-1.837-2.503-2.903-3.271
		c-1.326-0.952-1.862-2.342-2.668-3.592c-0.883-1.37-1.732-2.761-2.553-4.168c-0.295-0.506-0.387-1.134-0.703-1.622
		c-0.905-1.397-1.864-2.762-2.829-4.119c-1.426-2.006-2.942-3.95-4.271-6.017c-0.395-0.614-0.951-1.494,0.03-2.363
		c0.407-0.36,0.374-1.216,0.621-2.149c-0.555,0.349-0.802,0.504-1.067,0.672c-0.292-0.832-0.409-1.703-0.867-2.325
		c-0.448-0.609-1.18-1.211-1.894-1.389c-3.525-0.875-7.088-1.597-10.631-2.406c-0.551-0.126-1.062-0.424-1.551-0.789
		c2.26-0.626,4.41,0.148,6.56,0.447c2.181,0.303,4.307,1.009,6.515,1.415c-2.352-3.185-4.449-6.518-7.84-8.759
		c2.291,0.24,3.952,1.575,5.854,3.004c-0.227-0.862-0.401-1.528-0.576-2.194c1.087-0.015,2.653,1.499,3.484,3.616
		c0.624,1.588,1.025,3.264,1.526,4.901c0.11-0.02,0.22-0.039,0.33-0.059c0-0.689,0.094-1.394-0.017-2.065
		c-0.49-2.996-1.044-5.981-1.559-8.973c-0.06-0.347-0.022-0.71-0.027-1.065c-0.011-0.717-0.01-1.435-0.033-2.151
		c-0.014-0.444-0.062-0.888-0.096-1.332c0.136-0.01,0.271-0.02,0.407-0.03c0.108,0.362,0.268,0.716,0.317,1.086
		c0.479,3.516,1.929,6.701,3.219,9.959c0.634,1.601,0.778,3.42,0.982,5.159c0.186,1.581,0.147,3.187,0.221,4.782
		c0.018,0.376,0.089,0.75,0.136,1.124c0.145,0.04,0.289,0.08,0.434,0.12c0.342-0.792,0.908-1.563,0.987-2.381
		c0.406-4.186,0.611-8.392,1.032-12.577c0.384-3.81,0.844-7.621,1.479-11.396c0.474-2.813,1.281-5.569,1.946-8.35
		c0.034-0.144,0.116-0.276,0.292-0.682c0.062,0.426,0.132,0.592,0.1,0.735c-0.41,1.87-0.839,3.736-1.256,5.605
		c-0.24,1.077-0.605,2.115-0.008,3.25c0.21,0.4-0.089,1.075-0.172,1.621c-0.107,0.707-0.014,1.207,0.834,1.432
		c0.912,0.242,1.514,0.928,1.596,1.897c0.126,1.505,0.177,3.016,0.252,4.525c0.017,0.327,0.003,0.655,0.279,1.04
		c0.97-2.503,1.869-5.036,2.929-7.5c0.987-2.296,2.126-4.528,3.241-6.767c0.388-0.779,0.916-1.487,1.354-2.243
		c0.113-0.195,0.251-0.52,0.168-0.664c-1.01-1.747-0.193-3.498,0.049-5.199c0.645-4.527,0.805-9.057,0.296-13.592
		c-0.158-1.407-0.733-2.764-1.041-4.16c-0.106-0.485-0.145-1.117,0.083-1.511c0.266-0.461,0.855-0.735,1.304-1.09
		c0.257,0.371,0.701,0.724,0.74,1.116c0.21,2.134,0.385,4.276,0.448,6.42c0.073,2.469,0.017,4.941,0.017,7.307
		c0.222-0.095,0.655-0.449,0.92-0.351c0.338,0.126,0.649,0.583,0.774,0.961c0.236,0.716,0.322,1.479,0.489,2.219
		c0.072,0.319,0.19,0.628,0.31,1.012c1.133-1.966,2.275-3.735,3.193-5.614c0.591-1.211,0.182-2.503-0.388-3.695
		c-0.153-0.319-0.247-0.667-0.184-1.09c0.497,0.409,0.993,0.817,1.489,1.226c0.113-0.077,0.228-0.154,0.341-0.231
		c-0.225-0.453-0.393-0.945-0.683-1.351c-0.831-1.164-1.716-2.288-2.565-3.438c-0.139-0.187-0.24-0.42-0.294-0.648
		c-0.253-1.071,0.151-1.442,1.347-1.26c0.068-0.091,0.137-0.182,0.205-0.273c-0.63-0.424-1.213-0.975-1.904-1.235
		c-0.65-0.244-1.428-0.129-2.126-0.281c-0.259-0.056-0.45-0.421-0.672-0.646c0.264-0.225,0.552-0.662,0.785-0.635
		c0.864,0.1,1.713,0.344,2.562,0.553c0.37,0.091,0.729,0.229,1.251,0.396c-0.063-0.591-0.105-0.997-0.17-1.606
		c1.294,0.463,2.251,1.185,2.916,2.211c2.745,4.24,4.608,8.834,5.27,13.862c0.22,1.674-0.472,3.114-1.551,4.373
		c-0.445,0.519-0.825,1.036,0.142,1.734c0.407-0.676,0.824-1.314,1.187-1.983c0.549-1.01,1.084-2.029,1.567-3.071
		c0.141-0.304,0.249-0.834,0.089-1.031c-1.1-1.359,0.009-2.172,0.844-2.722c0.867-0.572,1.099-1.127,0.92-2.051
		c-0.055-0.279,0.067-0.592,0.108-0.89c0.101-0.017,0.2-0.033,0.301-0.05c0.108,0.362,0.308,0.723,0.312,1.086
		c0.028,2.193,0.014,4.386,0.011,6.579c-0.001,0.398-0.128,0.844,0.01,1.184c0.21,0.52,0.6,0.966,0.914,1.443
		c0.315-0.366,0.716-0.689,0.932-1.107c0.806-1.556,1.534-3.152,2.331-4.713c0.198-0.39,0.542-0.706,0.721-0.932
		c0.708,0.38,1.232,0.662,1.933,1.038c1.338-3.28,2.645-6.441,3.91-9.619c0.272-0.683,0.566-1.406-0.278-2.04
		c-0.199-0.149-0.138-0.848,0.005-1.216c1.385-3.566,2.774-7.132,4.251-10.661c0.441-1.055,1.145-2.004,1.765-2.978
		c0.122-0.191,0.415-0.273,0.629-0.406c0.132,0.056,0.264,0.112,0.396,0.167c-0.416,1.658-0.521,3.486-1.317,4.935
		c-1.294,2.354-1.771,4.638-1.506,7.332c0.339,3.429,0.17,6.908,0.22,10.365c0.146,0.031,0.293,0.061,0.439,0.091
		c0.299-0.622,0.598-1.244,0.896-1.866c0.126,0.012,0.253,0.023,0.379,0.036c0.048,3.915-0.016,7.835,0.175,11.744
		c0.189,3.877,0.634,7.741,0.967,11.611c0.173-0.005,0.346-0.009,0.519-0.014c0.036-0.407,0.119-0.815,0.101-1.219
		c-0.173-3.792-0.353-7.584-0.554-11.375c-0.12-2.272-0.39-4.542-0.389-6.812c0-1.615,0.417-3.226,0.512-4.847
		c0.172-2.943,0.2-5.895,0.365-8.838c0.258-4.576,0.639-9.138,1.84-13.591c0.26-0.961,0.707-1.577,1.778-1.538
		c0.13-0.932,0.252-1.807,0.373-2.681c0.146-0.016,0.292-0.031,0.438-0.047c0.326,1.101,0.697,2.19,0.957,3.306
		c0.124,0.532,0.039,1.114,0.043,1.673c0.035,5.74,0.048,11.481,0.109,17.221c0.043,4.03,0.049,8.065,0.269,12.086
		c0.12,2.208,0.694,4.387,0.983,6.59c0.452,3.441,0.806,6.896,1.26,10.337c0.249,1.882,0.629,3.746,0.935,5.621
		c0.872,5.358,1.69,10.726,2.614,16.076c1.051,6.094,2.177,12.176,3.309,18.256c0.181,0.969,0.56,1.9,0.651,2.826
		c0-3.247,0.015-6.494-0.005-9.741c-0.015-2.437-0.128-4.873-0.104-7.309c0.054-5.497,0.12-10.994,0.272-16.488
		c0.059-2.111,0.354-4.217,0.577-6.321c0.021-0.203,0.301-0.379,0.461-0.568c0.139,0.172,0.393,0.342,0.397,0.518
		c0.018,0.674-0.105,1.354-0.065,2.025c0.089,1.471,0.254,2.938,0.371,4.407c0.123,1.529,0.233,3.059,0.331,4.589
		c0.015,0.227-0.018,0.486-0.117,0.686c-0.306,0.61-0.683,1.05,0.214,1.667c0.458,0.316,0.405,1.374,0.78,2.122
		c0.053-0.762,0.175-1.527,0.146-2.286c-0.058-1.513-0.235-3.022-0.288-4.535c-0.021-0.581,0.167-1.168,0.256-1.753
		c0.034-0.223,0.149-0.486,0.073-0.666c-0.979-2.298-0.632-4.64-0.29-6.989c0.038-0.256,0.055-0.576-0.062-0.786
		c-0.738-1.32-0.303-2.324,0.934-3.372c0.144,1.206,0.278,2.25,0.391,3.295c0.887,8.235,0.771,16.493,0.763,24.761
		c-0.009,7.344,0.494,14.682,1.413,21.985c0.377,3.003,0.45,6.044,0.699,9.066c0.04,0.491,0.276,0.967,0.423,1.45
		c0.378-0.222,0.768-0.426,1.132-0.67c1.086-0.727,2.184-1.438,3.235-2.211c1.72-1.265,3.378-2.616,5.117-3.853
		c1.914-1.362,3.224-3.146,4.172-5.272c0.974-2.183,2.105-4.295,3.078-6.479c1.229-2.76,2.412-5.543,3.51-8.358
		c0.238-0.612,0.22-1.469-0.007-2.095c-1.194-3.297-2.477-6.563-3.762-9.827c-1.104-2.807-2.281-5.586-3.365-8.402
		c-0.264-0.686-0.287-1.465-0.422-2.202c0.141-0.057,0.282-0.115,0.423-0.172c0.264,0.256,0.569,0.481,0.783,0.772
		c1.104,1.5,2.208,3,3.264,4.533c0.649,0.943,1.267,1.918,1.799,2.931c0.609,1.156,0.93,1.331,1.636,0.306
		c1.116-1.619,2.163-3.327,2.942-5.126c0.811-1.871-0.387-3.49-1.287-5.021c-1.065-1.811-2.276-3.536-3.431-5.294
		c-1.303-1.985-2.621-3.958-3.914-5.949c-1.323-2.036-2.611-4.094-3.938-6.126c-0.606-0.93-1.364-1.773-1.873-2.749
		c-0.366-0.705-0.436-1.565-0.637-2.357l-0.033,0.032c0.821,0.961,1.7,1.88,2.452,2.893c2.159,2.905,4.304,5.823,6.385,8.785
		c1.776,2.528,3.451,5.127,5.184,7.686c0.865,1.279,1.906,2.465,2.588,3.833c0.433,0.868,0.6,2.03,0.45,2.993
		c-0.377,2.432-0.826,4.891-2.581,6.827c-0.188,0.207-0.312,0.476-0.518,0.658c-0.645,0.574-1.467,0.98-1.416,2.065
		c0.063,1.383,0.248,2.704,1.202,3.794c1.404,1.604,1.471,3.515,1.05,5.428c-0.279,1.271-0.89,2.468-1.333,3.705
		c-0.35,0.976-0.626,1.981-1.014,2.94c-0.64,1.583-1.283,3.168-2.033,4.7c-1.17,2.391-2.396,4.756-3.673,7.091
		c-0.432,0.788-1.021,1.521-1.658,2.157c-1.906,1.899-3.729,3.927-5.855,5.547c-2.035,1.549-4.374,2.72-6.651,3.92
		c-1.362,0.718-2.854,1.201-4.307,1.735c-0.987,0.363-2.013-0.144-2.515-1.271c-0.419-0.943-0.705-1.944-1.067-2.913
		c-0.162-0.433-0.365-0.85-0.55-1.273c-0.109,0.007-0.219,0.014-0.328,0.021c-0.105,0.966-0.169,1.939-0.323,2.897
		c-0.601,3.737-1.218,7.472-1.854,11.204c-0.374,2.197-0.736,4.399-1.222,6.573c-0.221,0.987-0.667,1.941-1.122,2.856
		c-0.322,0.646-0.287,1.055,0.104,1.717c1.021,1.727,2.519,2.884,4.043,4.099c1.339,1.065,1.269,2.689,0.958,4.222
		c-0.182,0.895-0.508,1.765-0.834,2.62c-0.118,0.311-0.398,0.577-0.651,0.812c-0.715,0.666-1.428,1.34-2.194,1.941
		c-0.367,0.288-0.855,0.422-1.289,0.626c-0.189-0.439-0.567-0.899-0.522-1.312c0.066-0.604,0.329-1.255,0.697-1.742
		c0.957-1.265,2.003-2.464,3.041-3.664c0.585-0.676,0.863-1.341,0.185-2.102c-1.319-1.478-2.622-2.971-3.991-4.4
		c-0.203-0.212-0.731-0.112-1.109-0.156c0.099,0.378,0.075,0.89,0.317,1.108c0.823,0.741,1.752,1.363,2.616,2.062
		c1.234,0.995,1.082,2.377-0.438,2.83c-1.704,0.508-3.352,1.478-5.269,0.962c-3.016-0.811-4.409-3.04-3.756-6.071
		c0.069-0.32,0.104-0.647,0.271-0.968c-0.088,1.043-0.383,2.103,0.573,2.904c0.685-1.491,1.348-2.938,2.011-4.384
		c0.125,0.043,0.25,0.087,0.375,0.13c-0.292,1.345-0.583,2.688-0.875,4.033c0.215,0.083,0.431,0.165,0.646,0.248
		c1.115-2.005,2.66-3.889,3.266-6.037c1.864-6.616,2.105-13.445,2.154-20.299c0.028-4.078-0.708-8.021-1.284-12.004
		c-0.069-0.479-0.236-0.945-0.414-1.634c-1.075,2.082-2,3.921-2.968,5.736c-1.329,2.493-2.754,4.937-4.015,7.463
		c-0.8,1.601-1.283,3.359-2.076,4.964c-0.979,1.983-2.179,3.855-3.187,5.825c-0.539,1.055-0.785,2.259-1.318,3.317
		c-1.572,3.12-3.226,6.2-4.84,9.3c-0.287,0.552-0.54,1.121-0.809,1.682c0.109,0.076,0.22,0.151,0.33,0.228
		c0.642-0.803,1.295-1.598,1.923-2.411c1.33-1.725,2.616-3.485,3.999-5.166c0.266-0.323,0.991-0.6,1.331-0.464
		c0.871,0.349,1.261-0.135,1.722-0.648c0.847-0.942,1.699-1.878,2.604-2.877c0.705,0.685,0.314,1.21-0.137,1.734
		c-1.997,2.323-4.012,4.632-5.984,6.977c-1.021,1.215-1.986,2.479-2.937,3.749c-0.682,0.911-1.625,1.018-2.616,0.925
		c-0.646-0.061-1.427-1.851-1.086-2.554c2.119-4.375,4.29-8.726,6.398-13.106c0.653-1.355,1.115-2.802,1.755-4.165
		c1.336-2.85,2.76-5.66,4.088-8.514c0.467-1.003,0.825-2.071,1.093-3.145c0.094-0.376-0.403-0.886-0.336-1.284
		c0.16-0.938,0.429-1.874,0.775-2.763c1.721-4.406,2.916-8.954,3.656-13.616c0.425-2.679-0.027-5.199-1.495-7.57
		c-0.697-1.128-0.926-2.536-1.505-3.751c-1.646-3.453-3.391-6.859-5.036-10.312c-0.614-1.289-1.056-2.659-1.591-3.987
		c-0.161-0.399-0.373-0.778-0.72-1.116c0.256,1.25,0.575,2.492,0.754,3.753c0.218,1.546,0.055,1.663-1.529,1.688
		c-0.188,0.003-0.44,0.171-0.549,0.337c-1.014,1.562-1.617,3.231-1.683,5.141c-0.251,7.304-0.498,14.61-0.905,21.906
		c-0.369,6.618-0.912,13.226-1.443,19.833c-0.265,3.298-0.849,6.578-0.975,9.878c-0.181,4.762-2.334,8.98-3.376,13.498
		c-0.103,0.442-0.428,0.843-0.691,1.235c-0.677,1.007-0.555,1.672,0.528,2.253c2.254,1.21,4.649,2.007,7.135,2.645
		c2.646,0.68,5.217,1.66,7.819,2.514c1.495,0.49,2.996,0.963,4.476,1.497c0.456,0.165,0.849,0.507,1.451,0.881
		c-0.886-2.023-1.99-3.619-3.729-4.729c-1.117-0.713-2.212-1.391-2.19-3.008c0.006-0.418-0.598-0.878-0.979-1.26
		c-0.442-0.442-0.948-0.819-1.427-1.226c0.09-0.126,0.179-0.251,0.268-0.377c0.862,0.431,1.817,0.741,2.568,1.316
		c2.008,1.535,4.019,3.09,5.855,4.82c1.483,1.396,2.239,3.182,1.58,5.327c-0.133,0.433-0.009,0.947,0.013,1.424
		c0.052,1.146-0.463,1.792-1.552,1.544c-1.608-0.366-3.266-0.779-4.711-1.537c-2.808-1.472-5.482-3.197-8.216-4.812
		c-0.058-0.034-0.153-0.005-0.456-0.005c0.198,0.438,0.292,0.853,0.534,1.144c2.886,3.48,5.794,6.942,8.801,10.535
		c0.217-0.981,0.447-2.03,0.679-3.078c0.144,0.003,0.288,0.005,0.433,0.008c0.105,0.77,0.212,1.54,0.317,2.311
		c0.112,0.078,0.224,0.156,0.335,0.235c0.133-0.317,0.266-0.634,0.402-0.959c0.224,0.182,0.396,0.278,0.384,0.318
		c-0.241,0.784-0.35,1.667-0.795,2.318c-0.926,1.355-2.091,2.486-3.844,2.776c-0.704,0.116-1.163-0.01-1.354-0.758
		c-0.317-1.233-0.765-2.444-0.964-3.696c-0.297-1.857-1.39-3.153-2.643-4.416c-0.747-0.753-1.372-1.627-2.179-2.598
		c-0.619,1.076-1.236,2.031-1.732,3.047c-0.507,1.037-0.927,2.12-1.322,3.206c-0.359,0.988,0.449,2.452,1.596,3.198
		c1.524,0.993,3.024,2.025,4.507,3.081c0.708,0.505,1.118,2.19,0.806,2.979c-0.4,1.011-1.548,1.659-2.7,1.525
		c-0.913-0.105-1.499,1.023-0.938,2.051c0.53,0.97,1.239,1.845,1.899,2.739c0.542,0.734,1.17,1.407,1.679,2.162
		c0.427,0.632,0.828,1.348,0.01,2.016c-0.989,0.81-1.119-0.397-1.771-0.826c-0.878,1.364-1.934,2.602-1.982,4.318
		c-0.044,1.517-0.078,3.039-0.007,4.554c0.17,3.644-0.99,6.812-3.218,9.655c-0.754,0.962-1.488,1.961-2.049,3.038
		c-0.255,0.49-0.261,1.295-0.041,1.812c0.887,2.088,2.004,4.044,3.953,5.368c0.329,0.224,0.631,0.487,0.946,0.73
		c2.05,1.576,3.528,1.114,4.413-1.351c0.143-0.398,0.372-0.788,0.644-1.114c1.647-1.974,3.351-3.902,4.971-5.898
		c1.19-1.466,1.188-5.492,0.124-7.234c-1.331-2.179-2.708-4.335-3.905-6.586c-0.565-1.062-0.843-2.306-1.078-3.502
		c-0.095-0.48,0.275-1.052,0.434-1.583c0.358,0.374,0.819,0.691,1.056,1.131c0.75,1.392,1.417,2.829,2.34,4.168
		c-0.323-1.561-0.646-3.121-0.97-4.682c0.12-0.038,0.24-0.076,0.36-0.113c1.556,1.623,1.686,3.91,2.644,5.885
		c0-1.734,0-3.469,0-5.203c0.127-0.022,0.254-0.044,0.38-0.066c1.167,1.725,0.256,4.051,1.431,5.998
		c0.266-0.801,0.471-1.419,0.676-2.036c0.13-0.002,0.26-0.003,0.39-0.005c0,0.648,0.1,1.316-0.018,1.943
		c-0.428,2.274-0.941,4.532-1.388,6.803c-0.085,0.434-0.012,0.898,0.211,1.396c0.888-1.655,1.774-3.311,2.661-4.966
		c0.594,1.334-0.074,2.402-0.659,3.39c-0.948,1.6-2.074,3.092-3.105,4.644c-0.112,0.171-0.09,0.431-0.184,0.937
		c0.635-0.308,1.104-0.466,1.495-0.736c0.906-0.63,1.764-1.331,2.669-1.964c0.182-0.126,0.484-0.079,0.731-0.111
		c0.003,0.324,0.145,0.781-0.016,0.947c-0.592,0.612-1.294,1.117-1.936,1.684c-1.875,1.655-3.741,3.32-5.605,4.987
		c-0.049,0.043-0.043,0.146-0.174,0.65c2.705-1.313,5.161-2.506,7.618-3.698c0.095,0.097,0.189,0.193,0.284,0.29
		c-0.077,0.262-0.07,0.648-0.244,0.766c-2.078,1.4-4.146,2.82-6.293,4.109c-1.139,0.684-2.424,1.123-3.643,1.674
		c0.028,0.113,0.058,0.227,0.087,0.341c0.694-0.101,1.405-0.138,2.081-0.312c3.837-0.988,7.667-2.005,11.496-3.026
		c0.379-0.102,0.727-0.401,1.1-0.424c0.353-0.02,0.72,0.206,1.08,0.323c-0.207,0.365-0.548,1.068-0.603,1.047
		c-1.236-0.488-2.095,0.595-3.184,0.75c-1.55,0.22-3.036,0.892-4.541,1.398c-0.191,0.064-0.326,0.295-0.684,0.638
		c0.655,0.181,1.134,0.457,1.581,0.413c3.247-0.316,6.489-0.689,9.729-1.066c0.388-0.045,0.758-0.289,1.143-0.308
		c0.411-0.019,0.83,0.121,1.246,0.192c-0.179,0.45-0.245,1.175-0.556,1.301c-0.936,0.379-1.954,0.611-2.962,0.742
		c-1.485,0.193-2.988,0.25-4.503,0.365c-0.127,1.116,0.252,1.73,0.996,2.38c1.034,0.902,1.96,1.98,2.729,3.12
		c0.882,1.305,1.611,2.727,2.28,4.157c0.796,1.703,1.075,3.492,0.529,5.367c-0.233,0.8-0.247,1.662-0.447,2.475
		c-0.342,1.386-0.935,2.619-2.658,3.24c1.44-0.133,2.776,0.831,3.464,2.127c0.162,0.305,0.659,0.607,1.002,0.608
		c1.112,0.003,2.231-0.093,3.334-0.243c0.339-0.046,0.638-0.387,0.955-0.592c-0.277-0.387-0.487-1.001-0.849-1.11
		c-0.663-0.2-1.429-0.033-2.127-0.156c-0.428-0.074-0.812-0.402-1.215-0.617c0.396-0.187,0.799-0.55,1.185-0.532
		c3.779,0.173,7.557,0.396,11.332,0.646c0.48,0.031,0.946,0.288,1.654,0.518c-0.1,0.092,0.049-0.149,0.163-0.135
		c1.855,0.242,3.717,0.47,5.548,0.842c0.244,0.05,0.535,0.928,0.43,1.32c-0.096,0.352-0.679,0.729-1.099,0.807
		c-2.154,0.398-4.323,0.718-6.491,1.036c-3.698,0.543-7.398,1.062-11.098,1.595c-4.648,0.671-9.283,1.466-13.951,1.945
		c-1.455,0.149-2.979,0.161-4.434,0.354c-1.85,0.245-3.664,0.833-5.459,1.388c-1.25,0.386-2.453,0.938-3.656,1.463
		c-1.863,0.812-3.676,1.749-5.571,2.475c-2.237,0.855-4.619,0.969-6.994,0.989c-3.184,0.026-6.371,0.148-9.55,0.031
		c-2.541-0.095-5.067-0.528-7.606-0.735c-3.698-0.303-7.4-0.556-11.103-0.796c-2.582-0.168-5.173-0.218-7.747-0.451
		c-0.798-0.072-1.596-0.503-2.322-0.897c-0.812-0.441-0.479-1.659,0.647-2.08c1.114-0.417,2.296-0.658,3.454-0.953
		c0.541-0.138,1.119-0.155,1.64-0.342c0.49-0.176,0.927-0.502,1.33-0.908c0.71-0.324,1.553,1.194,2.289-0.261
		c-0.758-1.046-2.419-1.751-1.549-3.57c2.113,1.368,4.112,2.873,6.297,4.026c2.85,1.504,5.771,2.872,9.095,3.181
		c2.49,0.23,4.939,0.888,7.43,1.154c1.163,0.123,2.378-0.229,3.568-0.365c-0.003-0.129-0.006-0.258-0.009-0.388
		c-1.169-0.152-2.335-0.321-3.506-0.452c-1.199-0.134-2.402-0.225-3.604-0.343c-0.657-0.064-1.317-0.121-1.968-0.229
		c-0.324-0.054-0.637-0.202-0.944-0.33c-0.358-0.149-0.702-0.451-1.06-0.462c-1.42-0.042-2.758-0.216-3.74-1.408
		c-0.085-0.104-0.323-0.193-0.436-0.148c-1.419,0.56-2.435-0.479-3.602-0.895c-0.281-0.101-0.535-0.296-0.782-0.475
		c-0.223-0.161-0.45-0.542-0.622-0.513c-1.274,0.22-1.867-0.84-2.727-1.383c-0.256-0.162-0.542-0.386-0.653-0.649
		c-0.456-1.082-1.076-1.773-2.433-1.134c-0.055-0.111-0.108-0.223-0.163-0.333c0.368-0.359,0.694-0.942,1.115-1.021
		c0.529-0.099,1.425,0.028,1.655,0.385c0.807,1.247,2.031,1.775,3.284,2.267c2.7,1.058,5.452,1.987,8.132,3.094
		c1.286,0.531,2.287,0.086,3.022-0.746c0.878-0.992,1.904-2.235,1.11-3.654c-0.82-1.467-1.998-2.73-2.979-4.112
		c-0.257-0.361-0.481-0.82-0.516-1.25c-0.072-0.906-0.595-1.066-1.355-1.131c-0.883-0.075-1.769-0.221-2.63-0.429
		c-1.448-0.351-2.845-0.541-4.003,0.685c-1.24,1.313-2.465,2.644-3.754,4.027c-0.173-0.283-0.346-0.565-0.535-0.874
		c-2.379,0.174-4.764,0.376-7.153,0.504c-0.619,0.033-1.361,0.015-1.858-0.288c-1.777-1.081-3.685-0.65-5.54-0.61
		c-2.67,0.057-5.336,0.261-8.004,0.41c-1.234,0.069-2.483,0.068-3.7,0.261c-1.567,0.249-3.106,0.669-4.661,1
		c-1.258,0.268-2.52,0.514-3.78,0.77c0.007,0.104,0.014,0.21,0.021,0.315c0.895,0.095,1.789,0.189,2.295,0.243
		c0.854-0.184,1.367-0.354,1.891-0.397c1.867-0.154,3.738-0.362,5.608-0.371c2.967-0.015,5.919-0.621,8.911-0.077
		c1.249,0.228,2.593-0.115,3.869,0.024c2.187,0.238,4.355,0.642,6.528,0.997c0.628,0.103,1.244,0.276,1.836,0.546
		c-5.112,0.318-10.108-1.016-15.222-0.642c-5.186,0.379-10.396,0.43-15.887,0.635c-0.672,0.563-3.474,0.499-3.906-0.435
		c-0.111,0.321-0.199,0.575-0.34,0.984c-0.302-0.356-0.516-0.607-0.723-0.851c-0.386,0.511-0.777,1.027-1.211,1.603
		c-0.577-0.547-0.819-0.775-1.063-1.007c-1.246,1.705-3.246,0.716-4.885,1.466c1.269,0.554,0.658,1.482,0.308,2.162
		c-0.194,0.377-0.968,0.599-1.496,0.63c-1.306,0.079-2.624,0.058-3.932-0.012c-6.66-0.356-13.33-0.421-19.952,0.336
		c-3.988,0.456-7.919,1.447-11.857,2.289c-1.809,0.386-3.56,1.033-5.359,1.472c-0.611,0.149-1.29,0.024-1.977-0.108
		c1.002-0.756,1.546-2.103,3.052-2.065c0.182,0.004,0.431-0.085,0.542-0.22c1.736-2.107,4.799-2.927,5.697-5.852
		c0.013-0.043,0.14-0.051,0.406-0.14c0.113,0.421,0.221,0.827,0.363,1.356c1.044-0.768,2.005-1.59,3.074-2.232
		c1.71-1.029,3.496-1.933,5.241-2.905c0.235-0.132,0.419-0.356,0.627-0.538c1.195-1.042,2.516-1.255,3.967-0.599
		c1.15-1.137,1.491-1.12,2.349,0.284c0.496,0.812,0.987,1.66,1.276,2.559c0.872,2.707,3.054,3.729,5.49,4.465
		c0.992,0.3,1.985,0.677,3.003,0.796c1.552,0.181,2.938-0.431,4.203-1.303c1.402-0.967,1.774-2.481,2.093-4.017
		c0.07-0.34,0.116-0.686,0.169-1.002c1.358-0.127,1.566,0.034,1.42,1.518c-0.05,0.514-0.15,1.022-0.215,1.535
		c-0.008,0.064,0.064,0.139,0.085,0.179c1.843-0.43,3.667-0.896,5.51-1.274c2.413-0.496,4.831-0.979,7.263-1.365
		c2.6-0.414,5.205-0.766,7.787-1.308c1.811-0.38,3.682-0.478,5.529-0.668c2.126-0.221,4.252-0.472,6.385-0.583
		c1.543-0.081,3.101,0.128,4.644,0.052c1.257-0.062,2.514-0.301,3.748-0.564c0.883-0.188,1.248-0.706,0.819-1.683
		c-0.395-0.9-0.619-1.882,0.036-3.039c0.197,0.398,0.268,0.661,0.429,0.842c0.475,0.528,0.897,1.216,1.501,1.494
		c1.544,0.711,3.179,1.221,4.767,1.839c0.396,0.155,0.752,0.415,1.167,0.649c0.437-0.537,0.607-0.949-0.242-1.109
		c-2.641-0.495-4.628-2.038-6.358-3.975c-1.114-1.247-0.679-3.232,1.092-4.392c0.907-0.593,1.989-0.966,3.04-1.279
		c1.443-0.431,2.934-0.703,4.401-1.056c1.504-0.362,3.037-0.124,4.585-0.886c1.455-0.717,3.359-0.507,5.062-0.731
		c3.506-0.465,7.013-0.932,10.513-1.444c0.399-0.058,0.798-0.358,1.124-0.633c1.983-1.666,3.999-3.3,5.896-5.06
		c1.218-1.129,2.279-2.434,3.357-3.705c0.545-0.643,0.479-1.353,0.058-2.112c-1.335-2.399-1.139-3.381,0.911-5.196
		c0.238-0.211,0.466-0.437,0.682-0.671c0.682-0.743,0.567-1.26-0.33-1.77c-2.058-1.169-4.13-2.315-6.146-3.551
		c-1.782-1.092-1.865-3.781-0.152-5.001c2.269-1.616,3.59-3.679,3.518-6.542c-0.076-2.993,0-5.995-0.198-8.979
		c-0.143-2.137-1.144-3.98-2.683-5.528c-0.908-0.914-0.83-1.709-0.047-2.756c0.925-1.237,1.805-2.51,2.656-3.799
		c0.209-0.317,0.357-0.77,0.317-1.136c-0.061-0.556-0.165-1.263-0.532-1.573c-0.253-0.214-1.052,0.01-1.483,0.255
		c-1.204,0.684-2.36,1.348-3.817,0.771c-0.896-0.355-1.342-0.924-1.21-1.927c0.27-2.056,0.412-4.132,0.775-6.17
		c0.504-2.832,0.053-5.57-0.567-8.303c-0.334-1.478-0.818-2.92-1.162-4.396c-0.347-1.487-0.082-2.771,1.149-3.887
		c1.603-1.452,2.636-3.254,2.854-5.498c0.318-3.256,0.886-6.492,1.104-9.753c0.502-7.528,0.903-15.064,1.253-22.602
		c0.156-3.352,0.043-6.715,0.142-10.069c0.045-1.503,0.312-3,0.199-4.568c-0.221,0.776-0.442,1.553-0.664,2.329
		c-0.126,0.028-0.252,0.057-0.378,0.085c-0.203-0.407-0.519-0.795-0.589-1.224c-0.233-1.417-0.424-2.844-0.551-4.274
		c-0.455-5.152-0.778-10.317-2.242-15.327c-0.197-0.676,0.021-1.48,0.083-2.222c0.032-0.375,0.147-0.744,0.23-1.141
		c-2.071-0.013-1.966,0.03-2.617,1.649c-0.483,1.202-1.216,2.327-1.997,3.366c-0.174,0.231-1.08,0.094-1.534-0.12
		c-0.427-0.201-0.7-0.726-1.15-1.23c-0.11,0.306-0.261,0.563-0.292,0.834c-0.191,1.659-0.295,3.331-0.569,4.975
		c-0.073,0.438-0.601,1.087-0.984,1.137c-1.274,0.164-2.579,0.078-3.87,0.138c-0.331,0.016-0.84,0.124-0.947,0.346
		c-0.467,0.955-0.91,1.941-1.188,2.963c-0.833,3.072-1.69,6.143-2.338,9.256c-0.653,3.147-2.843,5.118-4.957,7.213
		c-0.759,0.751-1.318,1.699-2.027,2.506c-0.72,0.819-1.496,1.591-2.277,2.353c-0.694,0.676-0.14,1.162,0.23,1.641
		c0.897,1.16,1.935,2.225,2.732,3.447c1.322,2.027,2.53,4.131,3.713,6.244c0.248,0.442,0.305,1.082,0.228,1.597
		c-0.188,1.245,0.07,1.665,1.36,2.092c0.269,0.089,0.529,0.484,0.616,0.789c0.532,1.87,1.014,3.755,1.509,5.636
		c0.044,0.168,0.003,0.433,0.104,0.5c1.04,0.694,1.1,0.839,0.619,2.098c-1.942-1.282-3.898-0.591-5.86-0.209
		c-0.003,0.157-0.006,0.313-0.008,0.471c0.468,0,0.936,0.014,1.403-0.003c0.752-0.027,1.458,0.019,1.787,0.863
		c0.325,0.833-0.309,1.218-0.765,1.713c-1.048,1.138-2.656,1.359-3.778,2.251c-1.202,0.955-2.496,0.776-3.832,1.01
		c0.927-1.219,3.224-1.246,3.027-3.541c-1.97,0.414-3.799,0.797-5.969,1.253c0.365-0.481,0.511-0.835,0.772-0.987
		c1.106-0.641,2.219-1.29,3.388-1.799c0.73-0.319,0.668-0.673,0.489-1.302c-0.553-1.955-0.421-2.181,1.457-3.19L156.468,119.776z
		 M180.364,244.671c1.292-0.528,2.239-1.145,2.782-2.21c0.433-0.847,1.119-0.776,1.699-0.441c0.289,0.167,0.299,0.819,0.438,1.257
		c0.49-0.584,0.975-1.161,1.459-1.738c0.091,0.059,0.182,0.117,0.273,0.176c-0.41,1.088-0.819,2.176-1.229,3.263
		c0.096,0.042,0.191,0.084,0.287,0.125c0.837-0.771,1.673-1.542,2.674-2.466c-0.044,1.584,0.473,1.96,1.775,1.326
		c1.051-0.511,2.228-0.757,3.333-1.163c2.391-0.879,4.752-1.843,7.163-2.658c1.413-0.477,2.687-1.645,4.389-1.014
		c0.197,0.072,0.585-0.261,0.834-0.467c0.198-0.165,0.271-0.512,0.481-0.625c1.522-0.815,3.177-1.435,4.571-2.425
		c1.435-1.019,2.889-2.206,3.855-3.642c1.628-2.42,0.922-5.898-1.242-7.939c-0.432-0.407-0.882-1.118-1.323-1.117
		c-0.59,0.001-1.209,0.515-1.763,0.887c-1.017,0.684-1.905,1.811-3.006,2.063c-2.755,0.633-3.14,3.378-4.857,4.889
		c-0.012,0.011,0.068,0.126,0.166,0.301c1.383-0.632,2.773-1.267,4.163-1.901c0.094,0.06,0.187,0.119,0.28,0.179
		c-0.266,0.357-0.455,0.85-0.809,1.05c-2.009,1.131-4.013,2.287-6.111,3.229c-0.872,0.393-1.97,0.335-2.971,0.379
		c-0.72,0.031-0.914,0.375-0.807,0.979c0.048,0.268,0.238,0.511,0.363,0.766c-0.086,0.071-0.172,0.144-0.257,0.215
		c-0.855-0.775-1.711-1.551-2.566-2.326c0.806,1.912,1.573,3.705,1.717,5.721c-0.249-0.078-0.371-0.213-0.466-0.364
		c-1.089-1.738-1.933-3.711-3.322-5.158c-1.582-1.648-3.319-3.301-5.673-3.986c-0.534-0.155-0.987-0.591-1.542-0.938
		c-0.495,0.531-0.054,0.803,0.509,1.098c2.446,1.282,4.499,3.008,5.911,5.419c0.392,0.669,0.798,1.36,0.32,2.04
		c-1.802-1.531-3.507-3.081-5.319-4.494c-1.844-1.438-3.985-2.248-6.339-2.509c0.32,0.442,0.68,0.815,1.113,1.052
		c0.553,0.303,1.251,0.389,1.724,0.771c0.358,0.288,0.462,0.894,0.679,1.357c-0.467,0.122-0.932,0.333-1.401,0.343
		c-0.588,0.012-1.18-0.142-1.771-0.224c-0.026,0.098-0.053,0.195-0.078,0.293c0.91,0.581,1.821,1.161,2.731,1.742
		c-0.021,0.163-0.043,0.326-0.063,0.489c-0.569,0.117-1.203,0.457-1.694,0.312c-1.742-0.514-3.451-1.15-5.14-1.825
		c-1.005-0.4-1.929-1.003-2.93-1.414c-0.252-0.104-0.663,0.176-1.426,0.41c4.22,2.339,5.391,5.499,3.601,9.478
		c0.604,0.097,1.072,0.171,1.744,0.278c0.229-0.26,0.548-0.905,1.036-1.077c0.309-0.109,0.866,0.486,1.439,0.846
		c0.249-0.31,0.621-0.774,0.993-1.238c0.123,0.05,0.247,0.1,0.371,0.15C180.908,242.922,180.681,243.654,180.364,244.671z
		 M206.769,218.914c0.005-0.143,0.01-0.285,0.015-0.429c-0.821-0.538-1.592-1.192-2.478-1.585c-1.173-0.521-2.431-1.14-3.663-1.165
		c-1.557-0.033-3.16,0.369-4.675,0.814c-0.946,0.277-1.94,0.818-2.608,1.528c-1.444,1.536-3.086,2.971-3.763,5.092
		c-0.023,0.073-0.078,0.14-0.129,0.2c-1.091,1.307-2.183,2.612-3.273,3.916c1.248,1.119,1.912,1.261,3.291,0.811
		c0.228-0.073,0.549-0.011,0.777,0.097c1.946,0.915,3.876,1.867,5.827,2.771c0.234,0.108,0.638,0.104,0.85-0.029
		c2.083-1.305,4.165-2.613,6.198-3.994c0.872-0.593,1.524-1.663,2.459-1.978c1.831-0.617,3.136-1.439,3.024-3.765
		c-1.117-0.107-2.34-0.16-3.532-0.377c-0.395-0.072-0.711-0.568-1.062-0.87c0.364-0.279,0.691-0.665,1.103-0.811
		C205.639,218.962,206.219,218.981,206.769,218.914z M215.648,241.899c0.069,0.131,0.139,0.261,0.208,0.392
		c0.258-0.012,0.52,0,0.773-0.038c2.791-0.425,5.576-0.887,8.371-1.28c2.977-0.42,5.967-0.75,8.941-1.186
		c0.649-0.095,1.258-0.475,1.885-0.723c-0.025-0.138-0.051-0.274-0.076-0.412c-2.148-0.304-4.298-0.606-6.446-0.91
		c0.055,0.139,0.108,0.278,0.162,0.418c-0.431,0.509-0.791,1.357-1.306,1.465c-1.91,0.397-3.874,0.537-5.814,0.801
		c-1.928,0.263-3.854,0.535-5.771,0.861C216.241,241.344,215.956,241.688,215.648,241.899z M77.83,238.771
		c0.018,0.117,0.035,0.234,0.053,0.352c2.883,0,5.766,0,8.696,0c-0.033-0.084-0.045-0.283-0.145-0.345
		c-1.244-0.775-2.482-1.563-3.768-2.264c-0.285-0.155-0.814-0.106-1.117,0.059C80.286,237.263,79.065,238.031,77.83,238.771z
		 M217.419,81.562c-0.173,0.009-0.346,0.019-0.519,0.028c0.222,3.897,0.443,7.795,0.665,11.692c0.189-0.01,0.38-0.021,0.569-0.031
		C217.814,89.359,218.275,85.424,217.419,81.562z M215.922,80.126c-0.14,0.007-0.279,0.014-0.419,0.021
		c0.221,4.416,0.441,8.832,0.662,13.247c0.207-0.01,0.414-0.021,0.62-0.031C216.703,88.94,216.389,84.529,215.922,80.126z
		 M175.115,226.83c-0.215,0.628-0.538,1.25,0.686,1.539c0.813,0.192,1.537,0.762,2.302,1.163c0.129-0.128,0.259-0.255,0.389-0.383
		c-0.329-0.602-0.519-1.409-1.022-1.752C176.891,227.006,176.033,227.027,175.115,226.83z M193.284,230.902
		c-0.058,0.114-0.114,0.228-0.172,0.342c0.528,0.396,1.03,0.837,1.596,1.169c0.228,0.134,0.592,0.032,0.895,0.037
		c-0.152-0.3-0.229-0.742-0.473-0.872C194.557,231.273,193.904,231.118,193.284,230.902z M219.434,115.79
		c-0.597,1.372-0.357,2.494,0.709,3.049C219.876,117.689,219.654,116.74,219.434,115.79z M171.735,43.899
		c-0.049,0.021-0.099,0.042-0.148,0.063c0.077,1.522,0.154,3.044,0.23,4.566c0.111-0.007,0.223-0.015,0.333-0.023
		C172.013,46.97,171.874,45.435,171.735,43.899z M218.123,95.913c-0.119,0.008-0.239,0.017-0.358,0.025
		c0.12,1.618,0.239,3.237,0.359,4.855c0.082-0.006,0.164-0.012,0.246-0.018C218.288,99.154,218.205,97.533,218.123,95.913z
		 M192.657,27.48c-0.178-0.049-0.355-0.099-0.533-0.147c-0.228,0.717-0.456,1.435-0.685,2.152c0.165,0.053,0.331,0.105,0.496,0.157
		C192.176,28.921,192.416,28.201,192.657,27.48z"/>
	<path style="fill-rule:evenodd;clip-rule:evenodd;" d="M59.466,232.862c-0.11-1.36,1.006-1.943,1.704-2.756
		c-0.073-0.088-0.147-0.176-0.22-0.264c-3.475,2.588-6.951,5.175-10.426,7.762c0.083,0.132,0.167,0.264,0.25,0.396
		c1.623-1.036,3.25-2.066,4.866-3.113c0.416-0.27,0.77-0.646,1.205-0.872c0.268-0.139,0.636-0.085,0.959-0.118
		c-0.069,0.329-0.037,0.738-0.224,0.974c-1.256,1.576-2.733,3.019-4.643,3.624c-1.818,0.575-3.112,1.744-4.507,2.871
		c-0.668,0.539-1.423,0.971-2.112,1.487c-0.604,0.453-1.172,0.956-1.62,1.636c3.029-0.756,5.33-2.884,8.37-3.907
		c-0.223,0.311-0.387,0.7-0.678,0.921c-2.873,2.183-5.923,4.092-9.23,5.539c-0.964,0.422-2.083,0.482-3.114,0.77
		c-0.374,0.104-0.698,0.388-1.045,0.589c0.204,0.347,0.346,0.928,0.621,0.999c1.408,0.363,2.85,0.787,4.28,0.791
		c0.669,0.002,1.31-0.946,2.018-1.375c0.776-0.47,1.625-0.815,2.421-1.254c0.87-0.479,1.899-0.836,2.532-1.54
		c1.291-1.437,3.073-1.575,4.695-2.146c0.224-0.079,0.613,0.083,0.811,0.262c0.086,0.078-0.039,0.601-0.207,0.711
		c-0.818,0.539-1.682,1.011-2.533,1.5c-0.955,0.55-1.869,1.201-2.879,1.615c-1.498,0.613-2.695,1.92-4.474,1.914
		c-0.264-0.001-0.638,0.36-0.756,0.64c-0.075,0.178,0.166,0.674,0.372,0.756c1.166,0.46,2.348,0.896,3.556,1.222
		c0.671,0.181,1.404,0.132,2.122,0.332c-1.228,1.131-2.75,0.974-4.202,0.982c-2.069,0.013-4.162-0.283-6.201-0.059
		c-2.155,0.237-4.28,0.854-6.379,1.444c-1.916,0.539-3.824,0.692-5.786,0.453c-1.827-0.224-3.658-0.417-5.487-0.618
		c-0.195-0.021-0.402,0.029-0.588-0.017c-0.602-0.148-1.612-0.203-1.707-0.521c-0.191-0.641,0.026-1.462,0.269-2.14
		c0.083-0.232,0.746-0.256,1.143-0.417c0.887-0.289,1.772-0.807,2.661-0.812c1.255-0.009,1.229-0.978,0.96-1.41
		c-1.546-2.492-2.311-5.768-5.879-6.397c-1.035-0.183-2.082-0.304-3.125-0.438c-1.26-0.163-1.923,0.745-2.847,1.377
		c-2.381,1.629-3.361,4.282-5.152,6.317c-0.155,0.176-0.315,0.374-0.516,0.479c-0.357,0.187-0.748,0.311-1.125,0.46
		c0.062-0.477-0.035-1.074,0.217-1.407c0.787-1.034,1.734-1.945,2.562-2.951c0.388-0.472,0.645-1.05,0.983-1.618
		c-2.041-0.623-3.286-0.104-3.645,1.648c-0.232,1.134-0.945,1.432-1.787,1.781c-0.689-1.515,0.519-4.13,2.18-4.557
		c1.108-0.285,2.292-0.26,3.427-0.459c0.622-0.109,1.489-0.212,1.773-0.635c1.746-2.598,4.179-2.077,6.646-1.698
		c3.766,0.579,5.928,3.032,7.13,6.354c0.602,1.665,1.917,1.29,2.993,1.565c0.917,0.234,1.012-0.715,1.393-1.312
		c0.67-1.052,1.49-2.021,2.335-2.945c1.164-1.271,1.783-2.747,1.783-4.442c0-1.218-0.012-2.428-0.859-3.519
		c-0.309-0.397-0.239-1.328-0.001-1.862c0.548-1.23,1.302-2.369,1.979-3.54c0.359-0.621,0.334-1.247-0.357-1.479
		c-0.289-0.097-1.01,0.301-1.124,0.62c-0.344,0.971-1.066,1.398-1.877,1.882c-0.66,0.393-1.134,1.088-1.737,1.593
		c-0.236,0.197-0.602,0.24-0.908,0.354c-0.062-0.33-0.13-0.658-0.18-0.989c-0.01-0.069,0.07-0.147,0.075-0.224
		c0.041-0.583,0.333-1.42,0.059-1.698c-0.686-0.694-2.347-0.415-2.903,0.378c-1.524,2.176-3.018,4.373-4.487,6.586
		c-0.486,0.731-0.861,1.537-1.329,2.386c-1.043,0.018-1.382-0.454-0.848-1.453c0.651-1.217,1.268-2.459,2.008-3.62
		c0.539-0.846,1.268-1.569,1.89-2.364c0.708-0.905,1.342-1.876,2.112-2.724c0.339-0.374,0.912-0.601,1.421-0.738
		c0.488-0.133,1.031-0.063,1.55-0.087c1.738-0.078,1.871,0.023,2.295,2.043c1.344-1.439,2.557-2.738,3.825-4.097
		c1.068,0.82,2.457,1.497,2.623,3.185c0.082,0.831,0.372,1.603-1.119,1.814c-0.857,0.122-1.54,1.475-2.167,2.134
		c0.436,0.561,0.825,0.838,0.876,1.167c0.197,1.258,0.279,2.534,0.418,3.803c0.03,0.271,0.028,0.653,0.197,0.783
		c1.158,0.893,0.662,1.867,0.264,2.898c-0.371,0.961-0.63,1.966-0.945,2.972c1.224-0.25,2.176-0.444,3.278-0.669
		c-0.026-1.513,1.032-2.509,2.811-2.874c1.062-0.219,1.48-0.94,2.025-1.875c0.717-1.23,2.042-2.129,3.174-3.09
		c1.159-0.982,2.403-1.863,3.604-2.796c1.504-1.17,3.015-2.331,4.498-3.526c1.017-0.82,1.979-1.706,2.988-2.535
		c0.43-0.354,0.88-0.776,1.39-0.919c1.181-0.331,1.8-1.035,2.066-2.213c0.078-0.343,0.507-0.693,0.86-0.873
		c2.958-1.506,5.062-3.936,6.948-6.546c0.987-1.366,1.662-2.954,2.54-4.404c0.166-0.273,0.649-0.547,0.951-0.513
		c3.03,0.342,6.057,0.815,8.754,2.329c2.478,1.392,4.944,2.843,7.223,4.528c0.688,0.508,1.286,2.143,0.972,2.818
		c-1.06,2.284,0.408,4.01,0.874,5.934c0.216,0.895,0.9,1.665,1.253,2.54c0.831,2.059,2.502,2.985,4.502,3.514
		c0.15,0.04,0.348-0.012,0.459,0.068c0.459,0.33,0.895,0.695,1.338,1.047c-0.461,0.221-0.959,0.388-1.372,0.677
		c-0.353,0.247-0.607,0.635-0.906,0.96c0.345,0.16,0.677,0.364,1.038,0.467c0.254,0.071,0.55-0.021,0.823,0.002
		c1.542,0.132,2.04-0.184,2.698-1.577c0.157-0.331,0.534-0.559,0.81-0.834c0.06,0.433,0.275,0.916,0.154,1.291
		c-0.664,2.053-2.116,2.9-4.273,2.605c-0.474-0.065-0.953-0.141-1.429-0.136c-1.272,0.012-1.688-0.344-1.26-1.513
		c0.443-1.209-0.048-1.643-1-2.175c-1.99-1.11-3.144-2.837-3.812-5.066c-0.928-3.094-2.032-6.154-3.342-9.104
		c-0.453-1.02-1.642-1.855-2.684-2.438c-2.3-1.287-4.464-3.076-7.25-3.086c-0.967-0.004-2.103,0.534-2.876,1.172
		c-2.79,2.302-5.444,4.767-8.182,7.132c-0.564,0.487-1.237,0.884-1.918,1.193c-0.928,0.422-1.162,1.145-1.082,2.039
		C63.155,230.281,61.406,232.48,59.466,232.862z M29.184,250.792c-0.394,0.411-0.769,0.625-0.823,0.902
		c-0.071,0.364-0.015,1.015,0.205,1.131c1.01,0.537,2.082,0.972,3.163,1.35c0.286,0.1,0.863-0.024,0.99-0.236
		c0.153-0.254,0.105-0.91-0.094-1.048C31.563,252.158,30.427,251.533,29.184,250.792z M49.232,239.302
		c-0.136-0.165-0.271-0.331-0.406-0.497c-0.634,0.571-1.268,1.143-1.901,1.714c0.072,0.085,0.145,0.169,0.217,0.253
		C47.838,240.281,48.535,239.792,49.232,239.302z"/>
	<path style="fill-rule:evenodd;clip-rule:evenodd;" d="M227.572,53.855c-0.462-0.905-0.929-1.808-1.383-2.717
		c-0.656-1.312-1.303-2.628-1.952-3.942c-1.459-2.955-2.938-5.901-4.372-8.868c-1.519-3.143-2.917-6.346-4.521-9.443
		c-1.019-1.966-2.345-3.771-3.484-5.678c-1.484-2.484-2.907-5.004-4.384-7.492c-0.44-0.742-1.078-1.382-1.424-2.159
		c-0.235-0.529-0.382-1.415-0.101-1.784c0.47-0.616,1.342-0.564,1.875,0.113c1.343,1.708,2.77,3.376,3.9,5.221
		c1.555,2.534,2.997,5.154,4.256,7.847c2.238,4.789,4.899,9.376,6.683,14.385c1.214,3.408,2.725,6.708,3.977,10.103
		c0.515,1.396,0.696,2.915,1.029,4.378C227.638,53.831,227.605,53.843,227.572,53.855z"/>
	<path style="fill-rule:evenodd;clip-rule:evenodd;" d="M213.421,168.043c0.742,1.936,1.785,3.607,1.604,5.81
		c-0.186,2.254-0.021,4.548,0.133,6.815c0.235,3.463,0.423,6.944,0.947,10.369c0.522,3.418,1.293,6.815,2.217,10.149
		c0.805,2.901,1.987,5.697,2.969,8.551c0.149,0.436,0.23,0.964,0.123,1.394c-0.072,0.293-0.523,0.667-0.815,0.676
		c-0.252,0.009-0.718-0.428-0.747-0.703c-0.347-3.274-1.93-6.135-2.982-9.172c-1.996-5.762-3.776-11.533-3.53-17.794
		c0.171-4.332,0.034-8.701-0.862-13.002C212.27,170.146,211.79,168.882,213.421,168.043z"/>
	<path style="fill-rule:evenodd;clip-rule:evenodd;" d="M119.389,43.796c-0.361,0.531-0.613,0.903-0.865,1.274
		c-0.396-0.285-0.893-0.496-1.17-0.87c-1.037-1.396-2.482-2.031-4.358-2.349c0.452-0.685,0.727-1.318,1.188-1.752
		c0.779-0.733,1.436-0.337,1.79,0.676c0.19,0.546,0.907,0.908,1.386,1.353c0.106-0.089,0.212-0.178,0.319-0.267
		c-0.209-0.47-0.418-0.939-0.662-1.488c0.292-0.23,0.59-0.465,1.085-0.855c-1.092-0.367-2.055-0.691-2.89-0.972
		c2.425-1.381,4.444-0.009,6.155,1.636c1.368,1.315,1.646,3.297,1.46,5.138c-0.336,3.34-1.441,6.439-3.529,9.134
		c-0.944,1.219-1.856,2.463-2.783,3.695c-0.161-0.044-0.322-0.088-0.482-0.131c0-0.458-0.188-1.051,0.03-1.353
		c1.597-2.226,2.22-4.625,1.596-7.321c-0.237-1.027-0.333-1.844,0.749-2.714C118.921,46.217,120.17,45.162,119.389,43.796z"/>
	<path style="fill-rule:evenodd;clip-rule:evenodd;" d="M60.385,31.295c-1.43-0.791-0.816-1.912-0.376-3.067
		c-1.581,0.139-1.627-0.91-1.62-1.932c0.011-1.515,0.175-3.033,0.111-4.543c-0.116-2.745-0.279-5.493-0.569-8.224
		c-0.133-1.253-0.546-2.492-0.955-3.697c-0.305-0.898-1.17-1.085-1.747-0.341c-0.536,0.692-1.068,1.561-1.149,2.396
		c-0.17,1.734-0.04,3.498-0.033,5.25c0.001,0.412,0,0.823,0,1.305c-0.262-0.1-0.386-0.114-0.394-0.154
		c-0.649-3.006-0.839-5.988,0.328-8.937c0.558-1.41,1.783-1.672,3.004-1.718c1.037-0.04,1.862,0.708,2.117,1.676
		c0.474,1.802,0.93,3.642,1.072,5.491c0.24,3.134,0.272,6.287,0.301,9.432c0.009,1.008-0.267,2.018-0.413,3.027
		c0.104,0.03,0.208,0.059,0.312,0.089c0.528-1.403,0.886-2.907,1.633-4.182c0.703-1.201,0.708-2.924,2.453-3.78
		c-0.455,4.494-1.769,8.384-4.1,11.931C60.358,31.321,60.385,31.295,60.385,31.295z"/>
	<path style="fill-rule:evenodd;clip-rule:evenodd;" d="M197.45,180.489c-0.214-0.541-0.479-1.068-0.629-1.626
		c-0.171-0.631-0.223-1.264,0.54-1.639c3.448-1.693,5.842-4.511,7.87-7.645c0.853-1.315,1.372-2.845,2.071-4.263
		c0.139-0.281,0.41-0.497,0.619-0.744c0.16,0.312,0.444,0.621,0.452,0.937c0.013,0.506-0.115,1.028-0.261,1.521
		c-0.167,0.566-0.531,1.092,0.194,1.581c0.125,0.084,0.047,0.652-0.093,0.913c-0.468,0.868-1.009,1.696-1.514,2.545
		c-0.073,0.123-0.104,0.271,0.001,0.534c0.88-1.014,1.761-2.027,2.706-3.115c0.193,0.784,0.361,1.462,0.588,2.378
		c-0.939,0.96-2.06,2.116-3.194,3.259c-1.026,1.032-2.083,2.035-3.1,3.077c-1.267,1.3-2.739,1.875-4.524,1.324
		C198.251,179.242,197.689,179.446,197.45,180.489z"/>
	<path style="fill-rule:evenodd;clip-rule:evenodd;" d="M141.081,121.323c-0.683-1.737,0.095-3.401,1.746-4.169
		c0.914-0.425,1.73-1.058,2.591-1.597c-0.059-0.154-0.117-0.309-0.175-0.463c-0.812,0.1-1.624,0.199-2.531,0.31
		c0.085-0.207,0.131-0.541,0.246-0.567c1.257-0.286,2.517-0.599,3.793-0.755c1.318-0.162,2.7-0.396,3.976-0.167
		c1.514,0.272,2.968,0.954,4.396,1.577c0.342,0.149,0.556,0.748,0.669,1.181c0.042,0.161-0.425,0.667-0.576,0.634
		c-2.474-0.543-4.537,0.667-6.727,1.436c-1.893,0.665-3.864,1.099-5.781,1.7C142.133,120.622,141.627,121.02,141.081,121.323z"/>
	<path style="fill-rule:evenodd;clip-rule:evenodd;" d="M39.845,172.281c0.981,0.453,2.156,0.966,3.303,1.535
		c1.312,0.65,2.626,1.306,3.89,2.043c1.159,0.676,2.599,3.175,2.569,3.868c-1.317,1.615-2.449,3.003-3.561,4.367
		c-1.085-1.136-1.846-2.608-1.708-4.524c0.034-0.478-0.55-1.036-0.926-1.495c-0.372-0.454-1.094-0.762-1.221-1.249
		c-0.543-2.082-2.227-2.764-3.918-3.486c-0.176-0.076-0.361-0.132-0.495-0.18C38.378,172.905,38.999,172.641,39.845,172.281z"/>
	<path style="fill-rule:evenodd;clip-rule:evenodd;" d="M169.798,17.627c0.205-0.411,0.264-0.734,0.455-0.872
		c0.578-0.417,1.194-0.786,1.82-1.13c1.174-0.645,2.347-1.298,3.553-1.878c2.279-1.095,4.55-2.221,6.885-3.187
		c2.443-1.011,4.984-1.785,7.433-2.785c1.854-0.757,3.623-1.724,5.444-2.564c0.906-0.418,1.836-0.794,2.782-1.11
		c0.162-0.054,0.679,0.345,0.654,0.445c-0.133,0.557-0.236,1.386-0.618,1.571c-1.413,0.688-2.933,1.16-4.411,1.714
		c-1.385,0.52-2.77,1.036-4.15,1.563c-2.112,0.808-4.229,1.604-6.328,2.444c-2.26,0.904-4.511,1.831-6.748,2.789
		C174.404,15.554,172.262,16.533,169.798,17.627z"/>
	<path style="fill-rule:evenodd;clip-rule:evenodd;" d="M229.954,44.862c-1.474-0.451-1.868-1.893-2.573-2.974
		c-1.671-2.561-3.186-5.225-4.722-7.87c-1.26-2.167-2.459-4.369-3.686-6.555c-1.065-1.897-1.915-3.966-3.252-5.648
		c-1.715-2.158-2.392-4.813-3.893-7.043c-0.186-0.276-0.253-0.634-0.375-0.954c0.095-0.054,0.189-0.107,0.284-0.161
		c0.694,1.074,1.426,2.126,2.075,3.227c1.045,1.772,1.985,3.607,3.069,5.355c0.674,1.088,1.612,2.013,2.288,3.1
		c1.424,2.287,2.772,4.621,4.116,6.956c1.645,2.856,3.29,5.712,4.858,8.61c0.69,1.276,1.189,2.656,1.775,3.989L229.954,44.862z"/>
	<path style="fill-rule:evenodd;clip-rule:evenodd;" d="M148.716,244.326c-0.277,0.08-0.568,0.258-0.831,0.223
		c-2.548-0.339-5.089-0.737-7.639-1.07c-1.381-0.181-2.777-0.24-4.161-0.403c-1.605-0.19-3.198-0.52-4.808-0.629
		c-1.476-0.102-2.969,0.074-4.45,0.011c-2.5-0.106-4.996-0.341-7.496-0.448c-0.946-0.041-1.901,0.177-2.852,0.173
		c-0.684-0.003-1.368-0.179-2.052-0.277c-0.013-0.146-0.026-0.293-0.039-0.439c0.444-0.125,0.889-0.354,1.333-0.355
		c2.271-0.009,4.542,0.015,6.812,0.075c3.083,0.084,6.179,0.062,9.244,0.357c4.269,0.412,8.547,0.758,12.799,1.318
		c1.413,0.187,2.784,0.697,4.174,1.061C148.74,244.056,148.729,244.191,148.716,244.326z"/>
	<path style="fill-rule:evenodd;clip-rule:evenodd;" d="M110.175,243.969c0.703-0.092,1.112-0.181,1.523-0.195
		c5.903-0.205,11.733,0.562,17.555,1.369c1.644,0.229,3.25,0.709,4.886,0.999c1.558,0.276,3.133,0.448,4.697,0.681
		c0.815,0.121,1.635,0.235,2.431,0.437c0.211,0.053,0.343,0.415,0.6,0.752C131.237,246.655,120.866,245.332,110.175,243.969z"/>
	<path style="fill-rule:evenodd;clip-rule:evenodd;" d="M89.6,183.581c1.086,0.093,1.861,0.2,2.638,0.205
		c0.336,0.003,0.919-0.14,0.971-0.331c0.416-1.521,2.339-2.052,2.453-3.703c0.142-2.042,1.495-3.402,2.693-4.796
		c0.523-0.609,1.507-0.832,2.297-1.199c0.947-0.44,1.909-0.848,3.161-1.4c-0.208,0.566-0.25,1.194-0.585,1.493
		c-0.883,0.79-1.929,1.396-2.846,2.151c-1.249,1.029-2.616,1.991-3.593,3.246c-0.693,0.891-0.777,2.237-1.232,3.34
		c-0.161,0.39-0.6,0.678-0.944,0.977c-0.499,0.433-1.057,0.802-1.533,1.257c-0.452,0.434-0.739,1.041-1.584,0.717
		c-0.209-0.08-0.629,0.347-0.934,0.565c-0.727,0.521-1.269,0.335-1.287-0.556C89.262,184.848,89.5,184.144,89.6,183.581z"/>
	<path style="fill-rule:evenodd;clip-rule:evenodd;" d="M141.56,42.605c0.443-0.462,0.834-0.995,1.34-1.373
		c2.058-1.542,4.17-3.012,6.224-4.559c1.422-1.072,2.829-2.173,4.144-3.371c0.532-0.484,0.988-1.214,1.151-1.91
		c0.366-1.568,1.562-1.403,2.891-1.648c-4.158,5.808-9.383,9.966-15.498,13.073C141.727,42.748,141.644,42.676,141.56,42.605z"/>
	<path style="fill-rule:evenodd;clip-rule:evenodd;" d="M56.589,28.36c-0.877-2.735-2.286-5.323-2.629-8.207
		c0.119-0.051,0.238-0.102,0.357-0.152c0.151,0.269,0.349,0.522,0.446,0.81c0.779,2.32,1.522,4.652,2.319,6.967
		c0.164,0.475,0.513,0.884,0.76,1.332c0.381,0.689,0.593,1.349,0.018,2.092c-0.6,0.775-1.239,0.399-1.792,0.098
		c-0.62-0.337-1.153-0.841-1.7-1.301c-0.929-0.783-1.856-1.57-2.747-2.396c-0.235-0.218-0.336-0.581-0.499-0.878
		c0.085-0.121,0.17-0.242,0.255-0.364c1.623,0.794,3.245,1.588,4.867,2.382C56.36,28.616,56.475,28.488,56.589,28.36z"/>
	<path style="fill-rule:evenodd;clip-rule:evenodd;" d="M77.514,188.336c-0.207-1.01,0.787-3.688,1.651-4.035
		c0.541-0.217,1.202-0.161,1.811-0.178c0.628-0.018,2.099,1.728,2.116,2.497c0.024,1.083-0.648,1.459-1.603,1.503
		c-0.668,0.03-1.339,0.019-2.007,0.053C78.863,188.208,78.246,188.275,77.514,188.336z"/>
	<path style="fill-rule:evenodd;clip-rule:evenodd;" d="M59.375,242.989c0.396-0.398,0.817-0.774,1.176-1.204
		c0.221-0.265,0.504-0.621,0.485-0.918c-0.062-0.933,0.392-1.268,1.193-1.637c1.684-0.777,3.266-1.772,4.913-2.635
		c0.36-0.188,0.816-0.194,1.228-0.284c-0.133,0.413-0.141,0.964-0.419,1.216c-1.875,1.698-3.84,3.279-6.204,4.29
		c-0.356,0.152-0.571,0.612-0.881,0.898c-0.318,0.294-0.672,0.549-1.01,0.82C59.695,243.354,59.535,243.171,59.375,242.989z"/>
	<path style="fill-rule:evenodd;clip-rule:evenodd;" d="M165.154,20.646c-0.596,1.098-1.26,2.206-1.802,3.371
		c-0.263,0.563-0.324,1.229-0.429,1.856c-0.133,0.799-0.476,1.373-1.262,1.729c-0.924,0.418-1.674,1.053-1.92,2.134
		c-0.067,0.296-0.234,0.656-0.471,0.807c-0.332,0.213-0.775,0.352-1.164,0.338c-0.186-0.007-0.534-0.477-0.494-0.672
		c0.072-0.35,0.367-0.663,0.601-0.968c0.083-0.108,0.376-0.154,0.373-0.217c-0.089-1.456,1.164-1.542,1.981-2.188
		c0.782-0.619,1.28-1.775,1.575-2.79C162.594,22.5,163.886,20.913,165.154,20.646z"/>
	<path style="fill-rule:evenodd;clip-rule:evenodd;" d="M98.454,183.713c-0.101,0.406-0.081,0.761-0.248,0.928
		c-1.381,1.381-2.488,3.167-4.661,3.44c-0.357,0.045-0.759-0.269-1.141-0.417c0.218-0.27,0.406-0.572,0.659-0.804
		c1.101-1.006,2.224-1.987,3.33-2.987c0.205-0.185,0.337-0.461,0.56-0.612c0.274-0.186,0.697-0.47,0.895-0.375
		C98.137,183.023,98.285,183.46,98.454,183.713z"/>
	<path style="fill-rule:evenodd;clip-rule:evenodd;" d="M130.937,49.922c-0.563,0.575-1.076,1.215-1.7,1.714
		c-1.637,1.311-3.322,2.561-4.991,3.833c-0.251,0.191-0.494,0.472-0.777,0.526c-0.34,0.066-0.719-0.065-1.082-0.111
		c0.118-0.387,0.113-0.938,0.374-1.134c2.033-1.528,4.104-3.009,6.198-4.454c0.508-0.351,1.146-0.516,1.723-0.767
		C130.767,49.661,130.852,49.791,130.937,49.922z"/>
	<path style="fill-rule:evenodd;clip-rule:evenodd;" d="M109.88,46.455c0.263-0.338,0.466-0.764,0.802-0.999
		c0.843-0.59,1.701-1.411,2.638-1.544c0.958-0.136,2.045,0.361,3.01,0.746c0.264,0.105,0.4,0.8,0.404,1.226
		c0.006,0.671-0.379,0.93-1.033,0.591c-0.318-0.165-0.678-0.275-0.951-0.495c-0.952-0.768-1.886-0.64-2.874-0.076
		c-0.564,0.322-1.177,0.559-1.769,0.834C110.033,46.643,109.957,46.549,109.88,46.455z"/>
	<path style="fill-rule:evenodd;clip-rule:evenodd;" d="M124.859,44.771c0.374-3.117-1.086-5.609-2.818-8.011
		c0.128-0.112,0.257-0.225,0.385-0.337c0.589,0.225,1.306,0.307,1.745,0.7C125.708,38.495,126.164,42.78,124.859,44.771z"/>
	<path style="fill-rule:evenodd;clip-rule:evenodd;" d="M77.209,90.7c1.293,0.506,1.829,1.479,1.442,2.67
		c-0.3,0.922-0.763,1.792-2.029,1.562c-0.249-0.045-0.575-0.026-0.777,0.103c-0.711,0.452-1.222,0.081-1.453-0.478
		c-0.252-0.609-0.244-1.326-0.349-1.996c0.689,0.154,1.386,0.279,2.064,0.472c0.395,0.112,0.759,0.332,1.137,0.503
		c0.169-0.535,0.44-1.064,0.473-1.608C77.74,91.568,77.423,91.185,77.209,90.7z"/>
	<path style="fill-rule:evenodd;clip-rule:evenodd;" d="M113.045,32.388c0.176-0.381,0.315-0.683,0.581-1.26
		c-1.065,0-1.944,0-3.205,0c0.652-0.427,1.04-0.865,1.488-0.941c1.588-0.272,3.204-0.292,4.481,0.884
		c0.293,0.269,0.329,0.979,0.232,1.432c-0.04,0.184-0.76,0.335-1.156,0.304C114.686,32.746,113.917,32.547,113.045,32.388z"/>
	<path style="fill-rule:evenodd;clip-rule:evenodd;" d="M63.532,233.824c-0.304,0.766-0.368,1.429-0.733,1.752
		c-1.056,0.937-2.224,1.749-3.37,2.581c-0.243,0.177-0.578,0.312-0.871,0.313c-0.288,0-0.695-0.119-0.829-0.328
		c-0.114-0.177-0.001-0.636,0.169-0.829c0.356-0.403,0.78-0.778,1.243-1.05C60.449,235.495,61.792,234.784,63.532,233.824z"/>
	<path style="fill-rule:evenodd;clip-rule:evenodd;" d="M76.826,175.598c-0.016-0.315-0.114-0.653-0.033-0.942
		c0.403-1.448,0.836-2.89,1.304-4.318c0.083-0.255,0.382-0.44,0.581-0.658c0.226,0.229,0.495,0.43,0.67,0.693
		c0.729,1.091,0.413,2.036-0.384,2.969c-0.643,0.752-1.183,1.591-1.769,2.392C77.072,175.688,76.949,175.643,76.826,175.598z"/>
	<path style="fill-rule:evenodd;clip-rule:evenodd;" d="M16.052,178.756c2.247,1.152,4.393,2.23,6.508,3.367
		c0.273,0.146,0.385,0.593,0.685,1.088C20.22,182.729,15.931,180.082,16.052,178.756z"/>
	<path style="fill-rule:evenodd;clip-rule:evenodd;" d="M67.302,228.161c0.455,0.658,0.677,1.276-0.085,2.011
		c-0.676,0.651-1.215,1.442-1.834,2.154c-0.495,0.571-0.867,0.392-1.154-0.226c-0.468-1.007,0.339-2.933,1.384-3.301
		C66.122,228.62,66.623,228.419,67.302,228.161z"/>
	<path style="fill-rule:evenodd;clip-rule:evenodd;" d="M83.566,40.301c-0.269,0.339-0.382,0.629-0.546,0.661
		c-0.441,0.086-0.911,0.113-1.355,0.058c-0.188-0.024-0.39-0.288-0.502-0.49c-0.644-1.16-1.293-2.32-1.864-3.517
		c-0.107-0.225,0.132-0.615,0.211-0.928c0.292,0.12,0.708,0.158,0.851,0.376c0.357,0.549,0.564,1.193,0.889,1.767
		c0.11,0.195,0.41,0.274,0.592,0.44C82.41,39.19,82.963,39.729,83.566,40.301z"/>
	<path style="fill-rule:evenodd;clip-rule:evenodd;" d="M78.138,36.606c-1.016-0.957-1.837-1.73-2.687-2.53
		c-0.333,0.155-0.635,0.295-1.072,0.5c0-0.927-0.027-1.72,0.028-2.507c0.009-0.127,0.535-0.362,0.569-0.323
		c1.152,1.302,2.837,2.167,3.343,3.997C78.362,35.9,78.25,36.101,78.138,36.606z"/>
	<path style="fill-rule:evenodd;clip-rule:evenodd;" d="M204.725,7c-0.743-0.406-1.491-0.806-2.229-1.22
		c-0.737-0.414-1.456-0.963-2.522,0.161c0-1.006,0-1.667,0-2.327c0.594,0.025,1.359-0.176,1.748,0.119
		c1.167,0.885,2.186,1.963,3.263,2.966C204.897,6.8,204.811,6.9,204.725,7z"/>
	<path style="fill-rule:evenodd;clip-rule:evenodd;" d="M216.733,52.156c0.289,1.126,0.513,2.229,0.86,3.292
		c0.396,1.211-0.434,1.973-0.849,2.94C215.801,57.25,215.777,53.016,216.733,52.156z"/>
	<path style="fill-rule:evenodd;clip-rule:evenodd;" d="M69.933,230.213c1.929,0.519,2.03,0.826,0.924,2.442
		c-0.241,0.353-0.323,0.812-0.565,1.164c-0.153,0.223-0.453,0.423-0.712,0.461c-0.116,0.018-0.402-0.376-0.427-0.603
		C69.02,232.438,69.039,231.215,69.933,230.213z"/>
	<path style="fill-rule:evenodd;clip-rule:evenodd;" d="M27.838,240.551c-0.064-1.038-0.78-2.061,0.318-2.987
		c0.403-0.34,0.324-1.201,0.618-1.741c0.145-0.268,0.637-0.347,0.973-0.512c0.154,0.365,0.314,0.727,0.455,1.097
		c0.023,0.06-0.012,0.178-0.062,0.224C28.969,237.69,28.474,239.141,27.838,240.551z"/>
	<path style="fill-rule:evenodd;clip-rule:evenodd;" d="M60.968,246.594c-0.754,1.298,0.398,3.089-1.803,3.605
		c-0.916,0.215-1.731,0.857-2.685,1.05C57.904,249.771,59.328,248.295,60.968,246.594z"/>
	<path style="fill-rule:evenodd;clip-rule:evenodd;" d="M74.02,99.601c-1.203,1.302-2.342,2.536-3.482,3.769
		c-0.124-0.106-0.249-0.213-0.373-0.32c0.165-0.223,0.374-0.427,0.485-0.675c0.208-0.459,0.357-0.946,0.535-1.419
		c0.177-0.47,0.229-1.145,0.569-1.359C72.307,99.249,73.002,98.622,74.02,99.601z"/>
	<path style="fill-rule:evenodd;clip-rule:evenodd;" d="M90.975,177.368c0.091-0.36,0.062-0.871,0.294-1.056
		c0.82-0.655,1.719-1.215,2.621-1.755c0.083-0.05,0.487,0.25,0.58,0.46c0.07,0.16-0.048,0.526-0.201,0.641
		c-0.949,0.71-1.933,1.376-2.905,2.056C91.234,177.599,91.104,177.483,90.975,177.368z"/>
	<path style="fill-rule:evenodd;clip-rule:evenodd;" d="M210.17,12.375c-1.497-1.567-2.761-2.891-4.204-4.402
		C207.886,8.155,210.127,10.467,210.17,12.375z"/>
	<path style="fill-rule:evenodd;clip-rule:evenodd;" d="M81.622,62.184c-2.299-1.264-4.467-1.694-6.837-1.259
		C76.587,59.323,79.743,59.841,81.622,62.184z"/>
	<path style="fill-rule:evenodd;clip-rule:evenodd;" d="M118.617,31.837c-1.096-0.978-2.18-1.946-3.229-2.882
		C116.927,28.46,118.041,29.419,118.617,31.837z"/>
	<path style="fill-rule:evenodd;clip-rule:evenodd;" d="M65.355,77.395c0.274-2.447,1.306-3.879,3.058-4.201
		C67.386,74.605,66.39,75.974,65.355,77.395z"/>
	<path style="fill-rule:evenodd;clip-rule:evenodd;" d="M122.612,52.386c-0.594-1.812,1.311-2.183,1.7-3.538
		C124.651,50.317,123.916,51.796,122.612,52.386z"/>
	<path style="fill-rule:evenodd;clip-rule:evenodd;" d="M27.741,184.302c-1.976,0.239-4.158-0.749-4.007-1.561
		C25.073,183.263,26.407,183.782,27.741,184.302z"/>
	<path style="fill-rule:evenodd;clip-rule:evenodd;" d="M53.339,31.926c0.476,0.247,0.881,0.457,1.285,0.667
		c-0.352,0.22-0.696,0.605-1.058,0.622c-0.503,0.024-1.332,0.29-1.347-0.635C52.216,32.386,52.881,32.182,53.339,31.926z"/>
	<path style="fill-rule:evenodd;clip-rule:evenodd;" d="M5.092,253.764c0.126-1.266,0.252-2.532,0.379-3.799
		c0.085,0.009,0.171,0.017,0.257,0.024c0,1.262,0,2.522,0,3.783C5.516,253.77,5.304,253.767,5.092,253.764z"/>
	<path style="fill-rule:evenodd;clip-rule:evenodd;" d="M189.982,32.004c-0.465,1.291-0.831,2.308-1.196,3.325
		C188.24,34.157,188.742,32.807,189.982,32.004z"/>
	<path style="fill-rule:evenodd;clip-rule:evenodd;" d="M34.895,118.365c0.42-1.046,1.63-0.526,2.307-1.063
		c0.055,0.102,0.11,0.204,0.165,0.306c-0.733,0.396-1.465,0.792-2.198,1.188C35.077,118.652,34.986,118.508,34.895,118.365z"/>
	<path style="fill-rule:evenodd;clip-rule:evenodd;" d="M156.498,119.809c0.428-0.716,0.562-1.735,1.808-1.788
		c-0.039,1.326-1.181,1.28-1.839,1.754C156.468,119.776,156.498,119.809,156.498,119.809z"/>
	<path style="fill-rule:evenodd;clip-rule:evenodd;" d="M81.379,95.921c0-0.903,0-1.611,0-2.397
		C82.289,94.145,82.289,94.68,81.379,95.921z"/>
	<path style="fill-rule:evenodd;clip-rule:evenodd;" d="M63.062,136.823c0.048,0.621,0.096,1.242,0.144,1.863
		c-0.178,0.013-0.356,0.026-0.535,0.039c-0.058-0.638-0.116-1.275-0.174-1.912C62.686,136.816,62.874,136.819,63.062,136.823z"/>
	<path style="fill-rule:evenodd;clip-rule:evenodd;" d="M138.767,152.088c1.447-1.103,2.568-2.658,4.584-3.048
		c0.113,0.923-0.183,1.132-1.842,1.855c-0.879,0.385-1.67,0.972-2.5,1.468C138.928,152.271,138.847,152.18,138.767,152.088z"/>
	<path style="fill-rule:evenodd;clip-rule:evenodd;" d="M129.246,156.604c0.805-0.354,1.609-0.71,2.414-1.065
		c0.069,0.167,0.14,0.334,0.209,0.501c-0.812,0.339-1.625,0.679-2.438,1.019C129.37,156.907,129.308,156.756,129.246,156.604z"/>
	<path style="fill-rule:evenodd;clip-rule:evenodd;" d="M64.102,97.395c-0.548,0.675-0.938,1.155-1.329,1.636
		c-0.327-0.486-0.932-0.992-0.899-1.451c0.03-0.425,0.714-0.851,1.189-1.15C63.147,96.376,63.62,96.938,64.102,97.395z"/>
</g>
</svg>
